<svg width="0" height="0" class="hidden">
  <symbol fill="none" xmlns="http://www.w3.org/2000/svg" viewBox="0 0 108 60" id="pay">
    <path d="M46.9727 25.0333C46.9179 25.0163 46.8647 24.9961 46.8136 24.9717C31.5438 19.2363 24.4351 29.939 24.4137 29.97C24.2636 30.1886 24.0431 30.3617 23.7715 30.4493L5.64128 36.3053C4.61609 36.6366 3.78259 37.2824 3.22857 38.1124C2.67661 38.9391 2.40041 39.9579 2.48656 41.0387L3.6618 55.7977C3.6886 56.1291 3.78754 56.4266 3.94995 56.6757C4.1136 56.9269 4.3465 57.1384 4.63834 57.2958C4.93349 57.4541 5.23771 57.5326 5.53491 57.5305C5.82718 57.5289 6.13017 57.4458 6.42654 57.2814L6.42737 57.283L24.7204 47.1298C24.9129 47.0195 25.1371 46.9596 25.375 46.9683C25.4203 46.9699 41.2149 47.5802 47.1092 48.6874C52.3398 49.6703 54.5584 47.7454 54.565 47.7401L54.5662 47.7417C54.6276 47.6905 54.6948 47.6442 54.7678 47.6045L72.4474 37.9756L47.8784 37.9756V37.9723C47.7696 37.9723 47.6595 37.9579 47.5499 37.9273C46.6199 37.6678 46.0016 37.0316 45.6887 36.2784C45.5061 35.8388 45.431 35.3587 45.4628 34.8956C45.4949 34.4188 45.6421 33.9474 45.9018 33.5396C46.2835 32.9401 46.8845 32.4948 47.6978 32.3712L63.5798 27.4072C64.4471 27.1362 64.9883 26.3979 65.1524 25.5885C65.2262 25.2241 65.2241 24.8453 65.1413 24.4871C65.0654 24.1578 64.9166 23.8483 64.6915 23.5918C64.1725 22.9997 63.1985 22.6684 61.6885 22.9378L48.237 25.3373V25.3353C48.0181 25.3737 47.7869 25.3539 47.5659 25.265C47.3664 25.1845 47.1694 25.1084 46.9727 25.0333ZM46.1005 22.111L46.1005 5.86386C46.1005 4.25009 46.7584 2.78381 47.8182 1.7216C48.8776 0.65939 50.3406 0 51.9511 0L102.149 0C103.76 0 105.222 0.65939 106.282 1.7216C107.342 2.78381 108 4.25009 108 5.86386V32.1118C108 33.726 107.342 35.1922 106.282 36.254C105.222 37.3162 103.76 37.9756 102.149 37.9756L77.6084 37.9756L56.0473 49.7182C55.4669 50.1558 52.3872 52.1947 46.6549 51.1176C41.416 50.1334 27.9283 49.5455 25.6268 49.4509L7.61374 59.4483L7.61497 59.4504C6.96243 59.8119 6.25877 59.9954 5.5444 59.9999C4.83498 60.0045 4.12967 59.8293 3.46971 59.4744C2.80521 59.1166 2.26933 58.6249 1.88226 58.0312C1.49353 57.4351 1.25857 56.7443 1.19839 55.9915L0.0231552 41.2325C-0.107925 39.5882 0.32283 38.0227 1.18066 36.7374C2.03642 35.455 3.31719 34.4597 4.88733 33.9524L22.6337 28.2203C24.0905 26.3136 31.7499 17.5246 46.1005 22.111ZM77.293 35.4967H77.3038L102.149 35.4967C103.076 35.4967 103.921 35.1154 104.534 34.5014C105.146 33.8875 105.527 33.0414 105.527 32.1118V13.1068L48.5738 13.1068L48.5738 22.7613L61.2635 20.4973C63.7521 20.0535 65.4987 20.7609 66.5465 21.9557C67.0494 22.5291 67.3804 23.2121 67.547 23.9351C67.6187 24.2446 67.6587 24.5623 67.669 24.882H71.3517C71.6931 24.882 71.9701 25.1597 71.9701 25.5018C71.9701 25.8439 71.6931 26.1215 71.3517 26.1215H67.5573C67.3648 27.0267 66.9307 27.8877 66.272 28.5678C66.3585 28.6744 66.4105 28.8103 66.4105 28.9582C66.4105 29.3003 66.1335 29.5779 65.7922 29.5779H64.8243C64.661 29.6502 64.4908 29.7147 64.3139 29.7696L48.3388 34.7634C48.2469 34.7919 48.155 34.8092 48.0631 34.8163C48.021 34.8249 47.9934 34.8435 47.979 34.8663C47.9493 34.9125 47.9316 34.9807 47.9262 35.06C47.92 35.1526 47.934 35.2464 47.9687 35.3294C47.9963 35.3959 48.0408 35.455 48.1018 35.4967L77.293 35.4967ZM92.9981 23.4567C93.9133 23.4567 94.7748 23.6872 95.5275 24.0938C95.8305 23.9314 96.1537 23.7963 96.4929 23.6926C96.9934 23.5393 97.5181 23.4567 98.054 23.4567C99.5285 23.4567 100.864 24.0562 101.831 25.025C102.797 25.9938 103.396 27.3324 103.396 28.8103C103.396 30.2885 102.797 31.6272 101.831 32.5964C100.864 33.5652 99.5289 34.1647 98.054 34.1647C97.5181 34.1647 96.9934 34.0821 96.4929 33.9288C96.1537 33.8247 95.8305 33.69 95.5275 33.5276C94.7748 33.9342 93.9133 34.1647 92.9981 34.1647C91.5232 34.1647 90.1876 33.5652 89.221 32.5964C88.2543 31.6276 87.6562 30.289 87.6562 28.8107C87.6562 27.3324 88.2543 25.9938 89.221 25.025C90.1876 24.0557 91.5232 23.4567 92.9981 23.4567ZM96.9962 25.2597C97.8322 26.205 98.3405 27.4485 98.3405 28.8107C98.3405 30.1729 97.8322 31.4164 96.9962 32.3617C97.3248 32.4592 97.6793 32.5117 98.054 32.5117C99.0738 32.5117 99.9972 32.0977 100.665 31.428C101.333 30.7583 101.747 29.8328 101.747 28.8103C101.747 27.7881 101.333 26.8627 100.665 26.1934C99.9972 25.5237 99.0738 25.1093 98.054 25.1093C97.6793 25.1093 97.3248 25.1622 96.9962 25.2597ZM95.61 26.1934C94.9418 25.5237 94.0184 25.1093 92.9981 25.1093C91.9783 25.1093 91.0549 25.5237 90.3867 26.1934C89.7185 26.8631 89.3051 27.7882 89.3051 28.8107C89.3051 29.8328 89.7185 30.7583 90.3867 31.428C91.0549 32.0977 91.9783 32.5121 92.9981 32.5121C94.0184 32.5121 94.9418 32.0977 95.61 31.428C96.2782 30.7583 96.6912 29.8328 96.6912 28.8107C96.6912 27.7882 96.2782 26.8631 95.61 26.1934ZM68.6039 29.5779C68.2626 29.5779 67.9856 29.3003 67.9856 28.9582C67.9856 28.6157 68.2626 28.3385 68.6039 28.3385H70.714C71.0554 28.3385 71.3324 28.6157 71.3324 28.9582C71.3324 29.3003 71.0554 29.5779 70.714 29.5779H68.6039ZM92.5942 19.0459C92.2524 19.0459 91.9758 18.7682 91.9758 18.4261C91.9758 18.084 92.2524 17.8064 92.5942 17.8064L100.553 17.8064C100.895 17.8064 101.171 18.084 101.171 18.4261C101.171 18.7682 100.895 19.0459 100.553 19.0459L92.5942 19.0459ZM74.4079 19.0459C74.0666 19.0459 73.7896 18.7682 73.7896 18.4261C73.7896 18.084 74.0666 17.8064 74.4079 17.8064L85.901 17.8064C86.2423 17.8064 86.5193 18.084 86.5193 18.4261C86.5193 18.7682 86.2423 19.0459 85.901 19.0459L74.4079 19.0459ZM50.9787 19.0459C50.6374 19.0459 50.3604 18.7682 50.3604 18.4261C50.3604 18.084 50.6374 17.8064 50.9787 17.8064L67.7564 17.8064C68.0981 17.8064 68.3747 18.084 68.3747 18.4261C68.3747 18.7682 68.0981 19.0459 67.7564 19.0459L50.9787 19.0459ZM105.527 11.4542V6.69016L48.5738 6.69016V11.4542L105.527 11.4542ZM105.424 5.03756C105.272 4.43766 104.959 3.90015 104.534 3.47419C103.921 2.86025 103.076 2.47891 102.149 2.47891L51.9511 2.47891C51.0236 2.47891 50.1794 2.86025 49.5668 3.47419C49.1418 3.90015 48.8286 4.43766 48.6764 5.03756L105.424 5.03756Z" fill="#333B41"></path>
  </symbol>
  <symbol fill="none" xmlns="http://www.w3.org/2000/svg" viewBox="0 0 16 14" id="twitter">
    <path fill-rule="evenodd" clip-rule="evenodd" d="M16 1.65713C15.4114 1.93821 14.7787 2.12837 14.1147 2.21377C14.7923 1.77623 15.313 1.08372 15.5579 0.258267C14.9237 0.6633 14.2211 0.957523 13.4734 1.11604C12.8747 0.429062 12.0216 0 11.0774 0C9.26464 0 7.79488 1.58227 7.79488 3.53414C7.79488 3.81108 7.82384 4.08093 7.87984 4.33971C5.15168 4.19226 2.73296 2.7851 1.11392 0.646704C0.83136 1.16877 0.66944 1.77589 0.66944 2.42363C0.66944 3.64979 1.24896 4.73161 2.12976 5.36552C1.59168 5.34702 1.08544 5.18816 0.64304 4.92349C0.64272 4.93801 0.64272 4.95288 0.64272 4.96775C0.64272 6.68019 1.77424 8.10861 3.27584 8.43343C3.00048 8.51416 2.7104 8.55755 2.41104 8.55755C2.19952 8.55755 1.99392 8.53525 1.79344 8.49394C2.2112 9.89798 3.42336 10.92 4.85984 10.9485C3.73648 11.8964 2.32096 12.4615 0.78304 12.4615C0.51808 12.4615 0.2568 12.4447 0 12.412C1.45264 13.4148 3.17824 14 5.03184 14C11.0698 14 14.3715 8.61443 14.3715 3.94401C14.3715 3.79068 14.3683 3.63821 14.3621 3.4866C15.0035 2.98839 15.56 2.36589 16 1.65713" fill="white"></path>
  </symbol>
  <symbol fill="none" xmlns="http://www.w3.org/2000/svg" viewBox="0 0 71 37" id="vector_arrow_right">
    <path d="M54.5889 28.5172L54.5889 28.5173L54.5849 28.5199C51.5922 30.46 48.8213 32.0974 46.3482 33.3872C44.9641 34.1103 43.4417 34.8432 42.019 35.396C40.6041 35.9457 39.2594 36.3288 38.2409 36.3288C37.5766 36.3288 36.9877 36.1647 36.6402 35.7026L36.6401 35.7025C36.2886 35.2344 36.2989 34.6137 36.4913 33.9648C36.6855 33.31 37.0811 32.5679 37.5911 31.7949C38.6129 30.2461 40.1319 28.5167 41.563 27.0192C42.6307 25.9012 43.854 24.7009 45.2109 23.4388C40.8728 23.8237 36.0154 24.0263 31.0565 24.0263C23.7631 24.0263 16.2356 23.5724 10.5264 22.696C7.67394 22.2581 5.26225 21.7129 3.55796 21.0604C2.707 20.7346 2.01685 20.3763 1.53512 19.9804C1.05422 19.5851 0.75 19.125 0.75 18.5992C0.75 18.0734 1.05422 17.6133 1.53511 17.218C2.01684 16.822 2.70699 16.4637 3.55795 16.1379C5.26224 15.4853 7.67393 14.9399 10.5264 14.5019C16.2356 13.6252 23.7631 13.1711 31.0565 13.1711C36.2743 13.1711 41.3363 13.3922 45.8255 13.8131C43.9225 12.3721 42.2346 11.0082 40.792 9.74591L40.7919 9.74582C39.2339 8.38108 37.5677 6.79309 36.4127 5.34112C35.8362 4.61638 35.3765 3.91248 35.1251 3.27762C34.8759 2.64849 34.8107 2.03125 35.1195 1.53416L35.1195 1.53412C35.4285 1.0369 36.0108 0.821461 36.6855 0.765629C37.3662 0.709292 38.2011 0.809138 39.1064 1.00447C40.9201 1.3958 43.082 2.18545 44.9954 2.97789C47.5645 4.04095 50.4692 5.42656 53.6334 7.09707L53.6356 7.09823L56.0486 8.40248L56.0486 8.40238L56.0551 8.40614L59.5243 10.4177L59.5243 10.4177L59.5272 10.4194C62.8852 12.4264 66.341 14.5333 69.7988 16.6811L69.7988 16.6812L70.132 16.8882L70.4421 17.081L70.1502 17.3004L69.8374 17.5355C69.8374 17.5355 69.8374 17.5355 69.8373 17.5356C66.8302 19.8046 63.5762 22.209 60.1669 24.6848L60.1659 24.6856L58.7145 25.7281L58.7146 25.7282L58.7087 25.7322L54.5889 28.5172ZM45.8687 32.4668L45.8688 32.4668C48.3087 31.1934 51.0508 29.573 54.0178 27.65C54.0181 27.6498 54.0184 27.6497 54.0186 27.6495L56.2952 26.1447L59.5578 23.8441C59.5583 23.8437 59.5588 23.8434 59.5593 23.843C62.7347 21.5368 65.7755 19.2926 68.6066 17.1626C65.3696 15.1574 62.1393 13.1904 58.9967 11.3112C58.9966 11.3111 58.9965 11.311 58.9963 11.3109L56.7771 9.9979L53.1456 8.01323C53.1451 8.01295 53.1446 8.01267 53.144 8.01238C50.0083 6.35699 47.1333 4.98622 44.5983 3.93808L44.5982 3.93802C40.9158 2.41274 38.7744 1.89508 37.5378 1.796C36.2981 1.69666 36.0391 2.02033 36.0001 2.08216C35.9629 2.14279 35.7884 2.5173 36.4277 3.58436C37.0654 4.64888 38.4789 6.33922 41.4765 8.96401L41.4766 8.96408C43.2639 10.5304 45.4419 12.259 47.9486 14.1025L48.7567 14.6962L49.5088 15.2488L48.5812 15.1462L47.5839 15.0359C42.6939 14.4958 36.9786 14.2092 31.0565 14.2092C22.2376 14.2092 14.8727 14.8085 9.71777 15.6854C7.13848 16.1242 5.12299 16.6308 3.75795 17.1619C3.07407 17.428 2.56732 17.6951 2.23605 17.9536C1.89822 18.2173 1.78809 18.4354 1.78809 18.5992C1.78809 18.763 1.89822 18.9811 2.23605 19.2448C2.56731 19.5033 3.07406 19.7703 3.75794 20.0363C5.12298 20.5674 7.13847 21.0738 9.71775 21.5125C14.8727 22.3891 22.2376 22.9882 31.0565 22.9882C36.5797 22.9882 41.972 22.7362 46.6485 22.259L47.463 22.176L48.2189 22.099L47.6564 22.6098L47.05 23.1605L47.0498 23.1607C45.2477 24.7939 43.6547 26.3336 42.3133 27.7367C39.5606 30.6168 38.3029 32.426 37.7623 33.5431C37.2187 34.6667 37.4291 35.0231 37.4707 35.0784L37.4708 35.0785C37.5119 35.1333 37.7951 35.435 39.0251 35.2255C40.2481 35.0171 42.3358 34.3119 45.8687 32.4668Z" fill="#333B41" stroke="#333B41" stroke-width="0.5"></path>
  </symbol>
  <symbol fill="none" xmlns="http://www.w3.org/2000/svg" viewBox="0 0 14 14" id="x_icon">
    <path d="M1 14C0.744141 14 0.488281 13.9023 0.292969 13.707C-0.0976562 13.3164 -0.0976562 12.6836 0.292969 12.293L12.293 0.292969C12.6836 -0.0976562 13.3164 -0.0976562 13.707 0.292969C14.0977 0.683594 14.0977 1.31641 13.707 1.70703L1.70703 13.707C1.51172 13.9023 1.25586 14 1 14Z" fill="#333B41"></path>
    <path d="M13 14C12.7441 14 12.4883 13.9023 12.293 13.707L0.292969 1.70703C-0.0976562 1.31641 -0.0976562 0.683594 0.292969 0.292969C0.683594 -0.0976562 1.31641 -0.0976562 1.70703 0.292969L13.707 12.293C14.0977 12.6836 14.0977 13.3164 13.707 13.707C13.5117 13.9023 13.2559 14 13 14Z" fill="#333B41"></path>
  </symbol>
  <symbol fill="none" xmlns="http://www.w3.org/2000/svg" viewBox="0 0 18 13" id="youtube">
    <path fill-rule="evenodd" clip-rule="evenodd" d="M12.0062 5.77285L7.4938 3.51719C7.4938 3.51719 6.24039 2.94726 6.24039 4.01864V9.03097C6.24039 9.03097 6.26358 9.7955 7.4938 9.28148C8.34978 8.92371 12.0062 7.02582 12.0062 7.02582C12.0062 7.02582 12.9391 6.42816 12.0062 5.77285ZM17.5213 10.7852C16.9624 12.3749 15.7669 12.5797 14.7637 12.7901C13.2852 13.1002 3.77237 13.0612 2.22922 12.5394C1.26706 12.2141 0.675032 12.0741 0.223857 9.78271C-0.0650079 8.3165 -0.0840778 4.00304 0.223857 2.51494C0.52204 1.07408 1.27096 0.397534 2.73067 0.259278C6.65148 -0.112151 13.205 -0.0597085 15.265 0.259278C17.1748 0.554861 17.5739 1.69385 17.772 2.76545C18.0927 4.50037 18.1304 9.05243 17.5213 10.7852Z" fill="white"></path>
  </symbol>
  <symbol fill="none" xmlns="http://www.w3.org/2000/svg" viewBox="0 0 87 96" id="zoo">
    <path d="M39.7487 5.26397C39.3993 4.93634 39.0498 4.69607 38.7222 4.52134C38.3945 4.36844 38.0232 4.28107 37.6082 4.28107C37.1277 4.28107 36.7782 4.39028 36.5379 4.58686C36.2977 4.78344 36.1666 5.11108 36.1666 5.54792C36.1666 5.85371 36.2977 6.13766 36.5598 6.33424C36.8219 6.55266 37.1277 6.74924 37.5208 6.94582C37.914 7.1424 38.329 7.33898 38.7658 7.5574C39.2027 7.77582 39.6177 8.01609 40.0108 8.32188C40.404 8.62767 40.7098 8.97715 40.9719 9.41399C41.234 9.85083 41.3651 10.375 41.3651 10.9866C41.3651 11.9258 41.103 12.734 40.6006 13.4111C40.0982 14.0882 39.3119 14.5251 38.3072 14.7653V16.8185H36.4069V14.8527C35.839 14.7872 35.2274 14.6343 34.594 14.3722C33.9606 14.1101 33.4145 13.7824 32.9558 13.3674L34.2227 11.4235C34.725 11.7948 35.2056 12.0787 35.6424 12.2753C36.1011 12.4719 36.5598 12.5593 37.0185 12.5593C37.5645 12.5593 37.9795 12.4501 38.2198 12.2316C38.4819 12.0132 38.6129 11.6637 38.6129 11.2051C38.6129 10.8556 38.4819 10.5716 38.2198 10.3314C37.9577 10.0911 37.6519 9.87268 37.2587 9.65425C36.8656 9.43583 36.4506 9.21741 36.0137 8.99899C35.5769 8.78057 35.1619 8.51846 34.7687 8.21267C34.3756 7.90688 34.0698 7.5574 33.8077 7.1424C33.5455 6.7274 33.4145 6.24687 33.4145 5.65713C33.4145 4.69607 33.6766 3.88791 34.2008 3.25449C34.725 2.62106 35.4677 2.20606 36.385 2.03132V0H38.2853V1.98764C38.9187 2.07501 39.4648 2.27159 39.9453 2.55554C40.4258 2.83949 40.8408 3.18896 41.234 3.60396L39.7487 5.26397Z" fill="#333B41"></path>
    <path fill-rule="evenodd" clip-rule="evenodd" d="M86.7749 76.0006L83.1812 73.7891L75.1644 88.164L79.0346 90.0991L86.7749 76.0006Z" fill="#333B41"></path>
    <path fill-rule="evenodd" clip-rule="evenodd" d="M81.2457 73.2355C71.8467 62.4543 63.5535 65.2187 52.4959 72.4062C42.8205 78.7643 35.633 74.3413 28.4455 77.3821C26.7869 78.2114 24.2989 80.1465 26.5104 82.0816C27.6162 82.9109 32.0393 83.7403 33.4215 83.4638C40.8854 81.8052 43.0969 85.1225 54.431 82.9109C51.1137 85.3989 40.3325 83.7403 33.6979 84.5696C28.4455 85.6753 19.8759 81.5287 26.7869 76.8292C23.746 75.447 20.9816 74.6177 17.6643 74.3413C14.3471 71.8533 9.09468 68.8124 6.33027 67.7067C4.11874 66.3245 -1.41007 66.8774 2.18366 70.4711C5.77739 73.7884 15.4528 81.2523 17.3879 82.358C25.1282 87.0575 32.3157 90.3748 39.7796 94.5214C39.7796 94.5214 42.2676 95.9036 47.2435 93.9686C50.8372 92.3099 66.8708 83.4638 70.741 84.846C72.9525 85.6753 74.0583 86.2282 74.0583 86.2282L81.2457 73.2355Z" stroke="#333B41" stroke-width="1.5"></path>
    <path fill-rule="evenodd" clip-rule="evenodd" d="M34.5278 72.406C35.0807 71.3003 35.6336 70.471 36.4629 70.1945C37.2922 69.9181 37.5687 70.471 38.1216 71.0238C38.6744 71.8532 38.9509 72.1296 39.7802 72.6825C40.0566 72.9589 40.6095 72.9589 40.886 72.9589L40.3331 72.6825C39.5038 72.1296 38.9509 71.5767 39.2273 70.471C39.2273 70.1945 38.9509 69.6416 39.5038 69.6416C40.0566 69.9181 40.886 70.471 41.7153 70.471C41.7153 70.471 42.5446 70.7474 42.2682 70.471C42.2682 70.1945 41.7153 69.9181 41.4388 69.6416C39.7802 68.2594 39.7802 67.983 39.7802 66.0479C40.0566 63.2835 38.9509 61.072 37.0158 59.1369C32.5927 54.7138 34.5278 48.6321 37.8451 42.8269C40.886 37.5745 43.6504 36.7452 40.6095 30.387C39.5038 27.6226 37.5687 24.8582 37.2922 23.1996C37.2922 22.6467 37.2922 22.9231 37.2922 23.1996C37.0158 24.8582 38.1216 27.3462 39.2273 29.8342C41.7153 35.363 41.1624 35.9159 37.5687 40.8918C33.6985 45.8677 30.9341 51.1201 32.5927 56.6489C33.6985 60.5191 39.2273 64.3893 36.4629 66.8772C35.0807 67.983 33.1456 70.7474 32.8692 72.406C32.5927 73.2354 32.5927 73.2354 32.3163 73.7882C32.0399 74.0647 32.3163 74.0647 32.5927 74.0647C33.9749 73.7882 33.9749 73.2354 34.5278 72.406Z" fill="#333B41"></path>
    <path d="M52.8429 46.529L53.755 46.2684L53.7981 47.2161C53.9459 50.4683 52.5534 54.3664 50.2642 57.4425C49.0772 59.0375 47.6155 60.4545 45.9547 61.4487C47.0478 61.074 48.2508 60.3838 49.4679 59.1695C52.7026 55.6792 53.5945 51.2419 54.6307 45.5536C53.6652 45.6402 52.7139 45.8564 51.737 46.1392C51.096 46.3247 50.4522 46.5364 49.786 46.757C49.7457 46.7704 49.7052 46.7838 49.6648 46.7972C49.0473 47.0018 48.4107 47.2127 47.7579 47.4089C42.6293 49.3021 39.8538 51.6595 38.8454 54.3645C38.5951 55.654 38.63 56.8192 39.0684 57.696L39.1052 57.7696L39.1251 57.8495C39.2985 58.5427 40 59.1847 40.9413 59.7019C41.9925 58.713 42.7253 57.8296 43.446 56.9124C43.2707 57.0928 43.1068 57.265 42.9519 57.428C42.8261 57.5602 42.7062 57.6863 42.5907 57.8057C42.3944 58.0085 42.2043 58.1985 42.0295 58.3497C41.8721 58.4858 41.6524 58.6584 41.3991 58.7429L41.2102 58.8059L41.0149 58.7668C40.1201 58.5879 39.4476 58.0935 39.1719 57.2664C38.9248 56.5252 39.0477 55.6546 39.3357 54.7804C39.83 52.8473 41.3457 51.3363 43.5888 50.0545C45.8467 48.7643 48.9586 47.6388 52.8429 46.529Z" stroke="#333B41" stroke-width="1.5"></path>
    <path d="M26.1344 28.3643C24.6582 27.8492 23.3723 27.4005 21.9336 27.1376C21.9829 27.3788 22.0313 27.6174 22.0792 27.8534C22.2097 28.4962 22.3363 29.1198 22.4655 29.7246C22.4297 29.2771 22.422 28.8382 22.4444 28.4123L22.4942 27.4666L23.4034 27.7318C26.7359 28.7037 29.4286 29.6903 31.4057 30.8047C33.1697 31.7989 34.4573 32.9473 35.0631 34.3665C34.2232 32.1059 32.0121 30.1686 27.6813 28.8948L27.6684 28.8911L27.6557 28.8868C27.1203 28.7083 26.6171 28.5328 26.1344 28.3643ZM25.4595 37.3306C24.8749 36.544 24.3598 35.692 23.9279 34.809C24.5337 36.2532 25.3329 37.5474 26.4881 38.7026L26.498 38.7124L26.5074 38.7226C27.1438 39.4079 27.7828 39.8995 28.3999 40.2466C27.2794 39.4579 26.2884 38.4458 25.4595 37.3306ZM35.2389 37.5153C35.6733 36.6464 35.6858 35.8128 35.2763 34.9459C35.5594 35.7323 35.5714 36.5125 35.2859 37.1786C34.9798 37.893 34.3674 38.3874 33.6036 38.5784L33.3917 38.6313L33.1845 38.5623C33.1 38.5341 33.0191 38.4969 32.943 38.4549C33.1171 38.6533 33.3004 38.8554 33.4965 39.0632L33.5163 39.0582C34.4752 38.8185 34.9986 38.4027 35.1821 37.6688L35.202 37.589L35.2389 37.5153Z" stroke="#333B41" stroke-width="1.5"></path>
    <path d="M50.5566 28.6732C50.2311 29.0618 49.8833 29.4321 49.5153 29.7769C49.6818 29.6372 49.8494 29.4842 50.0175 29.3168C50.2081 29.1065 50.3874 28.892 50.5566 28.6732ZM53.7653 19.4627C53.768 19.448 53.7707 19.4334 53.7734 19.4187C52.2418 19.7171 50.6647 20.1954 48.8887 20.8614L48.8887 20.8615L48.8776 20.8654C45.4003 22.1073 43.4897 23.5076 42.6388 25.3816C43.2182 24.192 44.2605 23.2206 45.7292 22.3769C47.4375 21.3955 49.792 20.5463 52.851 19.712L53.7653 19.4627ZM43.6887 29.1639C43.3879 29.0636 43.128 28.9102 42.9149 28.7121C43.1031 29.0573 43.3626 29.3412 43.7254 29.5207C43.8308 29.4111 43.9321 29.3035 44.03 29.1976C43.996 29.2007 43.9612 29.2024 43.9258 29.2024H43.8041L43.6887 29.1639Z" stroke="#333B41" stroke-width="1.5"></path>
  </symbol>
  <symbol fill="none" xmlns="http://www.w3.org/2000/svg" viewBox="0 0 284 246" id="alligator_widget">
    <path d="M82.6879 181.13C81.9873 180.123 81.2226 179.008 80.6771 178.193C80.6334 178.128 80.5791 178.074 80.5175 178.035C80.456 177.995 80.3884 177.971 80.3188 177.963C77.6022 177.645 70.9712 176.848 66.3401 176.294C66.2677 176.286 66.1947 176.296 66.1256 176.323C66.0565 176.35 65.9927 176.393 65.9382 176.451C65.8836 176.508 65.8394 176.578 65.8083 176.656C65.7772 176.734 65.7598 176.819 65.7572 176.906C65.7144 178.256 65.7465 179.684 65.7946 180.525C64.0279 182.143 62.4538 184.04 61.1154 186.163C60.6484 186.867 60.3573 187.714 60.2753 188.606C60.1934 189.498 60.324 190.4 60.6521 191.207C60.9802 192.015 61.4926 192.696 62.1307 193.173C62.7687 193.65 63.5066 193.904 64.2599 193.904H72.6503C73.3239 193.904 73.989 193.726 74.5976 193.382C75.2062 193.039 75.743 192.538 76.1691 191.916L82.6985 181.933C82.7736 181.817 82.8134 181.675 82.8115 181.529C82.8095 181.383 82.7659 181.242 82.6879 181.13ZM259.829 148.611C252.658 140.666 241.78 133.569 226.566 126.898C197.721 114.258 129.303 104.433 126.405 104.019C126.115 103.98 125.822 104.001 125.539 104.083L101.8 111.155H67.0353C60.2812 111.155 48.9121 114.2 45.8051 122.292C37.1473 127.803 26.8744 134.461 24.1739 136.213C21.3877 135.869 12.254 135.225 4.22713 140.138C2.88605 140.958 1.77386 142.225 1.02575 143.784C0.277633 145.343 -0.0741901 147.128 0.0130403 148.921C0.100271 150.714 0.622798 152.438 1.51711 153.884C2.41143 155.33 3.63901 156.436 5.05067 157.066C5.10656 157.093 5.1637 157.116 5.2218 157.136C6.16833 157.461 28.4627 165.164 36.4307 166.425C38.7623 166.795 41.2864 167.222 44.0243 167.68C48.88 168.496 54.2865 169.4 60.34 170.299C60.3386 170.299 60.3372 170.298 60.3362 170.297C60.3352 170.296 60.3347 170.294 60.3347 170.292L82.8964 173.058C82.8964 173.058 87.7093 180.41 88.4473 181.378C87.1873 183.134 86.1856 185.131 85.4847 187.284C85.2302 188.011 85.1301 188.8 85.1934 189.584C85.2567 190.367 85.4814 191.12 85.8476 191.775C86.2137 192.43 86.71 192.967 87.2922 193.338C87.8745 193.71 88.5247 193.904 89.1852 193.904H97.8912C98.5734 193.906 99.2471 193.724 99.862 193.372C100.477 193.02 101.017 192.507 101.442 191.872L107.886 182.289C108.498 181.381 108.846 180.261 108.881 179.097C108.904 178.245 108.907 177.007 108.827 175.448C108.823 175.361 108.834 175.273 108.86 175.191C108.885 175.109 108.925 175.034 108.976 174.971C109.027 174.907 109.088 174.857 109.156 174.824C109.224 174.79 109.297 174.774 109.37 174.775C115.587 174.927 139.686 174.82 147.877 174.457C148.002 174.45 148.125 174.497 148.225 174.587C148.324 174.678 148.394 174.808 148.421 174.953C148.711 176.335 148.787 177.768 148.648 179.182C146.032 180.962 143.808 183.459 142.161 186.465C141.756 187.184 141.522 188.021 141.486 188.886C141.449 189.751 141.61 190.612 141.952 191.377C142.295 192.141 142.805 192.78 143.428 193.226C144.052 193.671 144.766 193.906 145.493 193.906H157.475C158.294 193.907 159.098 193.643 159.801 193.142C161.887 191.039 167.212 185.724 168.228 184.709C168.34 184.597 168.432 184.457 168.496 184.3L173.924 171.216L174.86 171.114C176.432 170.942 179.348 170.651 183.053 170.515C195.069 170.078 217.748 166.597 226.106 165.043C229.513 164.405 234.823 167.132 237.706 170.993C238.588 172.178 239.994 174.51 239.465 176.791C237.518 185.125 228.604 192.878 214.363 198.632C196.78 205.735 141.833 208.169 119.025 208.883C117.727 208.924 116.48 209.499 115.497 210.51C114.514 211.521 113.854 212.906 113.629 214.43C113.405 215.954 113.629 217.524 114.265 218.873C114.9 220.223 115.907 221.269 117.116 221.836C126.87 226.397 143.699 229.538 164.994 229.538C182.881 229.538 203.924 227.321 226.561 221.867C256.406 214.681 270 191.795 270 173.574C270 164.488 266.578 156.091 259.829 148.611ZM51.7196 129.039C52.3077 129.039 52.8825 129.247 53.3715 129.636C53.8604 130.025 54.2415 130.578 54.4666 131.226C54.6916 131.873 54.7505 132.585 54.6358 133.272C54.5211 133.96 54.2379 134.591 53.8221 135.086C53.4062 135.582 52.8764 135.919 52.2997 136.056C51.7229 136.192 51.1251 136.122 50.5818 135.854C50.0385 135.586 49.5741 135.132 49.2474 134.549C48.9207 133.967 48.7463 133.282 48.7463 132.581C48.7465 131.642 49.0598 130.741 49.6173 130.077C50.1749 129.412 50.9311 129.039 51.7196 129.039ZM44.6928 162.004C41.9495 161.538 39.4093 161.112 37.0671 160.742C31.4627 159.856 17.7299 155.384 10.762 153.052C13.0882 153.371 14.8957 153.441 14.9438 153.441C16.3449 153.441 19.7781 153.549 23.7514 153.676C27.1632 153.778 30.9386 153.899 34.4788 153.989L37.4681 158.308C37.5394 158.411 37.6306 158.491 37.7339 158.542C37.8372 158.593 37.9493 158.613 38.0606 158.601C38.1719 158.588 38.2789 158.543 38.3723 158.47C38.4657 158.397 38.5427 158.298 38.5965 158.181L40.4575 154.103C41.4842 154.11 42.4414 154.116 43.3131 154.116L45.7516 158.219C45.8161 158.328 45.902 158.417 46.0018 158.477C46.1016 158.537 46.2123 158.567 46.3242 158.565C46.436 158.562 46.5457 158.527 46.6435 158.462C46.7414 158.398 46.8244 158.305 46.8853 158.194L49.2383 153.836C58.2758 153.097 72.7626 151.975 80.8001 167.1C66.0888 165.597 54.3132 163.622 44.6928 162.004ZM171.063 187.941C170.889 188.754 170.897 189.609 171.088 190.417C171.279 191.226 171.646 191.96 172.151 192.546C172.942 193.438 173.994 193.926 175.083 193.904H186.555C187.238 193.907 187.911 193.725 188.526 193.373C189.141 193.021 189.681 192.508 190.106 191.872L197.293 181.168C197.724 180.53 198.027 179.784 198.179 178.986C198.332 178.188 198.331 177.359 198.176 176.562L197.965 174.502C197.949 174.34 197.882 174.191 197.776 174.088C197.671 173.984 197.536 173.932 197.399 173.944C192.543 174.366 179.713 175.198 176.747 175.416C176.616 175.425 176.492 175.492 176.4 175.603C176.307 175.714 176.253 175.862 176.247 176.018C176.175 177.13 176.171 178.246 176.234 179.359C174.941 180.314 173.818 181.563 172.931 183.036C172.044 184.508 171.409 186.175 171.063 187.941Z" fill="black"></path>
  </symbol>
  <symbol fill="none" xmlns="http://www.w3.org/2000/svg" viewBox="0 0 18 10" id="arrow_left">
    <path d="M5.00179 9.10745L5.10646 9.2094L5.21112 9.10745L5.35128 8.97092L5.46159 8.86347L5.35128 8.75602L1.74841 5.24656L17 5.24656H17.15V5.09656V4.90344V4.75344H17L1.74878 4.75344L5.35129 1.24398L5.46158 1.13653L5.35128 1.02909L5.21112 0.892552L5.10646 0.790595L5.00179 0.892553L0.895334 4.89275L0.785027 5.0002L0.895338 5.10764L5.00179 9.10745Z" fill="white" stroke="white" stroke-width="0.3"></path>
  </symbol>
  <symbol fill="none" xmlns="http://www.w3.org/2000/svg" viewBox="0 0 33 37" id="banana-bamboo_icon">
    <path fill-rule="evenodd" clip-rule="evenodd" d="M24.3978 31.6248C23.9372 29.9806 22.5635 28.0496 21.4935 25.9642C22.4107 27.7517 23.3278 29.5393 24.3978 31.6248ZM26.9819 31.4368C25.4554 29.2079 24.5362 26.67 23.617 24.132C22.8548 23.3928 22.2475 23.7019 21.6402 24.0109C20.5784 24.927 19.5146 25.0927 20.7334 25.9753C22.2599 28.2042 23.3299 30.2897 24.0962 32.5297C24.3999 32.3751 25.0072 32.0661 25.3108 31.9115C25.9181 31.6025 26.0689 31.15 26.9819 31.4368ZM20.4235 23.8787C19.9629 22.2345 18.5892 20.3036 17.5192 18.2181C18.4364 20.0056 19.3535 21.7932 20.4235 23.8787ZM16.2964 15.8347C15.9886 14.4884 14.4621 12.2595 13.5449 10.472C14.4621 12.2595 15.2264 13.7492 16.4492 16.1326C16.4492 16.1326 16.4492 16.1326 16.2964 15.8347ZM18.8805 15.6467C17.5068 13.7158 16.5876 11.1778 15.5155 8.34194C14.9062 7.90062 14.2989 8.20968 13.6916 8.51875C12.6299 9.43481 11.5661 9.60048 12.7848 10.4831C14.1584 12.4141 15.3813 14.7975 16.1476 17.0375C16.4513 16.883 17.0586 16.5739 17.3622 16.4194C17.8167 15.8124 18.1203 15.6578 18.8805 15.6467ZM12.3221 8.08857C12.0143 6.74233 10.4878 4.51346 9.57064 2.7259C10.4878 4.51346 11.2521 6.00309 12.4749 8.3865L12.3221 8.08857ZM14.9062 7.90062C13.5325 5.96967 12.6133 3.43172 11.5412 0.595853C10.9319 0.154533 10.3246 0.463599 9.71729 0.772666C8.65556 1.68872 7.4389 1.55647 8.81048 2.73704C10.1841 4.66799 11.407 7.0514 12.1733 9.29142C12.477 9.13688 13.0843 8.82782 13.2351 8.37536C13.8424 8.06629 14.146 7.91176 14.9062 7.90062ZM14.3216 16.4639C13.105 16.3317 12.1919 16.0449 10.9753 15.9126C12.1919 16.0449 12.9521 16.0338 14.3216 16.4639C12.4956 15.8904 11.1261 15.4602 9.45292 15.1845C10.8224 15.6147 12.0391 15.747 13.8651 16.3205C11.8862 15.449 10.2131 15.1734 8.6907 14.4453C10.0602 14.8755 11.4297 15.3056 13.4086 16.1771C11.7334 15.1511 9.90736 14.5775 8.08133 14.004C9.90736 14.5775 11.8862 15.449 14.3216 16.4639C14.7781 16.6073 14.7781 16.6073 14.3216 16.4639ZM13.7143 16.773C13.7143 16.773 13.4107 16.9275 13.2578 16.6296C10.9774 16.663 9.00054 16.5419 7.17659 16.7187C8.84975 16.9944 10.6737 16.8176 12.4977 16.6407C10.6737 16.8176 9.1534 16.8398 7.78595 17.16C9.30626 17.1378 11.1302 16.9609 12.9542 16.7841C11.4339 16.8064 10.0664 17.1266 8.69896 17.4468C10.5229 17.27 11.8904 16.9498 13.4107 16.9275C12.3469 17.0932 11.2831 17.2589 10.2193 17.4245C11.2831 17.2589 12.3469 17.0932 13.4107 16.9275C13.7143 16.773 13.7143 16.773 13.7143 16.773ZM14.6315 18.5606C14.0242 18.8696 13.5697 19.4766 12.6588 19.9402C13.2661 19.6311 13.7205 19.0242 14.6315 18.5606C13.7205 19.0242 12.6588 19.9402 11.7478 20.4038C12.6588 19.9402 13.4169 19.1787 14.3278 18.7151C13.1132 19.3332 11.8986 19.9514 10.8369 20.8674C11.595 20.1059 12.8096 19.4878 14.0242 18.8696C12.8096 19.4878 11.595 20.1059 10.3804 20.724C11.595 20.1059 12.9604 19.0353 14.4786 18.2626C14.7823 18.1081 14.9351 18.406 14.6315 18.5606ZM14.7843 18.8585C14.4807 19.013 14.4807 19.013 14.4807 19.013C13.2682 20.3815 12.3593 21.5955 11.754 22.655C12.3593 21.5955 13.2682 20.3815 14.0262 19.62C13.421 20.6795 12.6629 21.441 12.0577 22.5004C12.6629 21.441 13.5718 20.227 14.177 19.1675C13.5718 20.227 13.2702 21.1319 12.8158 21.7389C13.2702 21.1319 13.8754 20.0725 14.4807 19.013C14.1791 19.9179 13.7247 20.5249 13.5739 20.9774C14.0283 20.3704 14.0262 19.62 14.4807 19.013L14.7843 18.8585ZM15.5424 18.097C15.8461 17.9424 15.8461 17.9424 16.1497 17.7879C16.3026 18.0858 16.3026 18.0858 16.7591 18.2292C18.2856 20.4581 19.3556 22.5436 20.1219 24.7836C20.4256 24.6291 21.0329 24.32 21.3365 24.1655C21.791 23.5585 22.0946 23.4039 22.8548 23.3928C21.4811 21.4618 20.5619 18.9239 19.4898 16.088C18.8805 15.6467 18.2732 15.9558 17.6659 16.2648C16.9078 17.0264 16.1476 17.0375 15.9969 17.49C15.844 17.192 15.3875 17.0486 15.2346 16.7507C15.0818 16.4528 14.6253 16.3094 13.863 15.5702C11.8842 14.6987 8.68863 13.6949 7.01547 13.4193C7.47404 14.313 9.90942 15.3279 11.8883 16.1994C9.91149 16.0783 7.32738 16.2663 5.80914 17.0389C7.33151 17.767 12.9562 17.5345 14.6273 17.0598C14.6273 17.0598 14.931 16.9052 15.0838 17.2032C15.5403 17.3466 15.9969 17.49 16.1497 17.7879C15.8461 17.9424 15.5424 18.097 15.0859 17.9536C15.0859 17.9536 14.7823 18.1081 14.175 18.4172C12.5039 18.8919 10.5312 20.2716 9.46945 21.1876C10.3825 21.4744 12.2044 20.5472 13.5697 19.4766C12.6609 20.6906 11.6012 22.357 10.996 23.4165C12.3634 23.0963 14.7864 19.6089 14.9351 18.406C15.2388 18.2515 15.2388 18.2515 15.5424 18.097Z" fill="#55B807"></path>
    <path d="M28.1743 10.2391L28.1782 10.2252L28.178 10.2107L28.0821 4.15261L28.0819 4.14261L28.0798 4.13285C28.0313 3.91064 28.1382 3.69607 28.374 3.52213C28.61 3.3481 28.9617 3.22756 29.3541 3.20459C30.1288 3.15924 31.0324 3.49439 31.4726 4.49829C31.2842 5.3744 31.1772 6.2383 31.0707 7.09722L31.0705 7.09937C30.9625 7.97057 30.8552 8.83666 30.6646 9.71399L30.6554 9.75621L30.6798 9.79182C33.1412 13.3771 33.4114 17.285 32.1986 20.8179C30.9849 24.3533 28.2846 27.5151 24.8031 29.5944C21.3223 31.6734 17.0657 32.6672 12.7422 31.8738C8.42473 31.0815 4.03183 28.5054 0.272911 23.43C0.133783 22.8476 0.0778791 22.3617 0.107862 21.9746C0.138149 21.5835 0.255102 21.3025 0.452161 21.1197C0.648968 20.937 0.941107 20.838 1.35208 20.843C1.76321 20.848 2.28406 20.9574 2.92488 21.1815C13.4167 25.5384 25.0393 21.4704 28.1743 10.2391Z" fill="#FFEB00" stroke="#55B807" stroke-width="0.2"></path>
  </symbol>
  <symbol xmlns="http://www.w3.org/2000/svg" viewBox="0 0 10 20" id="dollar">
    <path d="M8.07792 6.25974C7.66234 5.87013 7.24675 5.58442 6.85714 5.37662C6.46753 5.19481 6.02597 5.09091 5.53247 5.09091C4.96104 5.09091 4.54545 5.22078 4.25974 5.45455C3.97403 5.68831 3.81818 6.07792 3.81818 6.5974C3.81818 6.96104 3.97403 7.2987 4.28571 7.53247C4.5974 7.79221 4.96104 8.02597 5.42857 8.25974C5.8961 8.49351 6.38961 8.72727 6.90909 8.98701C7.42857 9.24675 7.92208 9.53247 8.38961 9.8961C8.85714 10.2597 9.22078 10.6753 9.53247 11.1948C9.84416 11.7143 10 12.3377 10 13.0649C10 14.1818 9.68831 15.1429 9.09091 15.9481C8.49351 16.7532 7.55844 17.2727 6.36364 17.5584V20H4.1039V17.6623C3.42857 17.5844 2.7013 17.4026 1.94805 17.0909C1.19481 16.7792 0.545455 16.3896 0 15.8961L1.50649 13.5844C2.1039 14.026 2.67532 14.3636 3.19481 14.5974C3.74026 14.8312 4.28571 14.9351 4.83117 14.9351C5.48052 14.9351 5.97403 14.8052 6.25974 14.5455C6.57143 14.2857 6.72727 13.8701 6.72727 13.3247C6.72727 12.9091 6.57143 12.5714 6.25974 12.2857C5.94805 12 5.58442 11.7403 5.11688 11.4805C4.64935 11.2208 4.15584 10.961 3.63636 10.7013C3.11688 10.4416 2.62338 10.1299 2.15584 9.76623C1.68831 9.4026 1.32468 8.98701 1.01299 8.49351C0.701299 8 0.545455 7.42857 0.545455 6.72727C0.545455 5.58442 0.857143 4.62338 1.48052 3.87013C2.1039 3.11688 2.98701 2.62338 4.07792 2.41558V0H6.33766V2.36364C7.09091 2.46753 7.74026 2.7013 8.31169 3.03896C8.88312 3.37662 9.37662 3.79221 9.84416 4.28571L8.07792 6.25974Z"></path>
  </symbol>
  <symbol fill="none" xmlns="http://www.w3.org/2000/svg" viewBox="0 0 284 246" id="Eagle_widget">
    <path d="M92.0011 131.298L110.984 61.4721L159.593 29.8421H169.469L218.836 0V9.54835L172.838 36.4055L231.745 13.1293L253.01 13.7278L238.581 27.4531L178.579 46.5498L247.694 34.019L273.516 34.615L250.731 44.1633L189.213 54.9062L253.01 53.7142L281.113 60.2776L253.01 69.23L195.29 65.649L241.617 75.1999L254.53 85.9428L236.302 87.7333L199.847 76.9879L235.54 94.2966L241.617 105.638L206.682 107.428L215.796 113.936L218.836 125.929L207.441 131.298L211.239 141.445L202.125 145.624L202.884 152.786H186.554V160.547H172.838L177.821 166.514L157.318 164.128L177.821 174.269L193.773 183.224L253.01 187.401L261.365 195.755L253.01 200.533L211.239 190.389L257.567 205.309L264.402 211.872H245.413L211.239 200.533L252.251 216.049L257.567 223.216L245.413 226.193L183.139 202.922L164.15 201.728L177.062 219.63L164.912 216.647L172.838 226.193L130.735 223.216L115.544 213.662L113.266 202.922L101.87 178.446L60.0995 156.362L70.772 156.532L60.0995 148.574L74.8287 147.78L64.7015 143.403L74.3221 142.208L65.7149 137.433L77.3589 134.648L67.7384 127.882L92.0011 131.298Z" fill="black"></path>
    <path d="M91.3694 120.19L42.0793 107.192L35.6667 92.3361L25.5395 102.95V110.905L55.2466 123.639L89.3394 128.678L91.3694 120.19Z" fill="black"></path>
    <path d="M138.628 228.23L130.527 234.063V239.373L131.873 243.35L125.125 240.431V233.538L120.736 240.167L123.098 246L115.675 238.574L123.776 228.23L129.511 227.063L138.628 228.23Z" fill="black"></path>
    <path d="M119.765 229.556L113.31 232.308L111.28 238.042L115.676 242.653L113.31 238.075L119.765 229.556Z" fill="black"></path>
    <path d="M118.961 221.456L106.978 229.351L104.616 233.989L100.569 235.234L105.549 226.193L97.103 229.414L94.9116 238.564L92.0426 233.923L96.9384 224.441L90.5226 229.016L89.8513 236.178L86.5562 230.01L94.4049 220.396H108.921L113.397 215.757L118.961 221.456Z" fill="black"></path>
    <path d="M3.59856 137.699L9.67552 132.921H19.4606L19.8027 130.266L29.9299 126.553H60.0984L70.4386 133.187L54.2345 134.782L68.7508 140.149L52.8855 142.472L67.7406 146.451H54.2345L63.6904 153.745H54.0731L16.6012 144.595H6.98075L0.907013 147.379L3.59856 137.699ZM28.5809 136.347C29.9686 136.347 31.0917 135.462 31.0917 134.374C31.0917 133.281 29.9654 132.399 28.5809 132.399C27.1899 132.399 26.0636 133.284 26.0636 134.374C26.0636 135.462 27.1932 136.347 28.5809 136.347Z" fill="black"></path>
  </symbol>
  <symbol fill="none" xmlns="http://www.w3.org/2000/svg" viewBox="0 0 8 16" id="facebook">
    <path fill-rule="evenodd" clip-rule="evenodd" d="M8 2.75008H6.4C5.29832 2.75008 5.33342 3.14316 5.33342 3.8619V4.99991H8L7.46658 8H5.33342V16H1.6V8H0V4.99991H1.6V3.58692C1.6 1.33782 2.79742 0 5.62684 0H8V2.75008Z" fill="white"></path>
  </symbol>
  <symbol fill="none" xmlns="http://www.w3.org/2000/svg" viewBox="0 0 284 246" id="Gorilla_widget">
    <path d="M152.161 63.6031C152.161 63.6031 164.44 51.7076 175.449 47.7424C175.449 47.7424 149.621 12.3863 95.0003 0.821167C95.0003 0.821167 76.37 12.0558 72.9827 34.1947C72.9827 34.1947 58.5866 37.1686 58.5866 44.7685L75.9466 51.3772C75.9466 51.3772 108.973 46.4207 113.207 47.412C117.441 48.4033 114.477 60.2988 110.667 62.2814C110.667 62.2814 111.937 66.2466 114.477 67.8987C114.477 67.8987 106.009 81.4464 83.9915 74.1769C83.9915 74.1769 96.2705 94.6637 65.3612 99.9505C65.3612 99.9505 47.5777 95.9854 45.0372 77.4812C45.0372 77.4812 65.7846 78.8029 67.9017 81.116C67.9017 81.116 72.5592 78.4725 55.6226 76.1595C55.6226 76.1595 53.0821 74.1769 62.3973 67.8987L56.046 67.5683L54.3524 53.6902C54.3524 53.6902 15.3982 60.6292 5.65961 84.0899C5.65961 84.0899 -15.9346 132.663 31.9114 237.74C31.9114 237.74 63.6675 242.697 84.8383 236.749C84.8383 236.749 86.1086 221.549 83.1447 219.567L69.172 213.288C69.172 213.288 96.694 175.619 88.2256 168.68C88.2256 168.68 80.1808 162.732 78.0637 159.098C78.0637 159.098 89.9193 163.724 94.5769 163.724C94.5769 163.724 100.081 146.541 110.667 134.315C110.667 134.315 85.2617 216.923 95.8471 239.723C95.8471 239.723 166.981 255.584 163.17 232.123C163.17 232.123 163.594 223.532 152.585 216.262C152.585 216.262 172.062 199.08 172.909 196.767C172.909 196.767 188.999 189.828 177.143 161.411C165.287 132.994 176.72 160.75 176.72 160.75C176.72 160.75 257.592 102.924 205.512 57.3249C205.512 57.3249 184.764 38.1599 152.161 63.6031Z" fill="black"></path>
    <path d="M107.28 54.6816H96.271H67.0553L59.4338 52.0381C59.4338 52.0381 62.8211 61.2902 64.5148 61.9511C64.5148 61.9511 73.8299 62.2815 78.9109 59.6381C78.9109 59.6381 88.6495 65.5858 91.6134 65.9163C91.6134 65.9163 106.01 60.9598 107.28 54.6816Z" fill="black"></path>
    <path d="M75.0992 63.9334L72.5587 68.5595C72.5587 68.5595 70.4416 71.2029 75.0992 71.2029H78.4866V65.2551C78.4866 65.2551 76.7929 63.9334 75.9461 63.9334" fill="black"></path>
    <path d="M72.9845 63.9334L69.1738 69.2203L64.0928 68.5595C64.0928 68.5595 67.9035 64.2638 72.9845 63.9334Z" fill="black"></path>
    <path d="M222.871 118.124C222.871 118.124 203.817 148.524 184.764 161.411L187.728 180.576C187.728 180.576 197.466 178.593 198.313 179.254C199.16 179.915 225.412 220.228 224.988 222.541C224.988 222.541 216.096 225.515 216.096 227.828L215.25 234.767C215.25 234.767 262.249 238.401 275.798 234.767C275.798 234.767 290.194 222.21 278.762 195.115C278.762 195.115 258.438 177.272 258.015 171.324C258.015 171.324 254.204 161.08 260.555 148.524C260.978 147.863 270.717 115.481 222.871 118.124Z" fill="black"></path>
    <path d="M186.883 185.532C186.883 185.532 187.306 196.767 161.055 214.94C161.055 214.94 172.91 227.827 170.37 231.792L182.225 230.471C182.225 230.471 190.27 210.645 190.27 208.662C190.27 208.662 184.342 204.367 183.496 202.053C183.496 202.053 204.666 192.141 196.622 185.532C194.504 184.541 186.883 184.541 186.883 185.532Z" fill="black"></path>
  </symbol>
  <symbol fill="none" xmlns="http://www.w3.org/2000/svg" viewBox="0 0 16 16" id="inst">
    <path fill-rule="evenodd" clip-rule="evenodd" d="M4.70172 0.0482874C3.8501 0.0870031 3.26863 0.222151 2.75974 0.420015C2.23357 0.624308 1.78768 0.898032 1.34294 1.34276C0.897913 1.78749 0.624468 2.23351 0.420169 2.75967C0.2223 3.26869 0.0870054 3.85014 0.0482887 4.7016C0.00928629 5.55491 0 5.82721 0 8C0 10.1728 0.00928629 10.4449 0.0482887 11.2984C0.0870054 12.1499 0.2223 12.7313 0.420169 13.24C0.624468 13.7662 0.897913 14.2125 1.34294 14.6571C1.78768 15.102 2.23357 15.3754 2.75974 15.58C3.26863 15.7779 3.8501 15.913 4.70172 15.9517C5.55506 15.9907 5.82736 16 8.00007 16C10.1729 16 10.4452 15.9907 11.2986 15.9517C12.15 15.913 12.7315 15.7779 13.2407 15.58C13.7664 15.3754 14.2127 15.102 14.6575 14.6571C15.1022 14.2125 15.3755 13.7662 15.5801 13.24C15.7778 12.7313 15.9133 12.1499 15.952 11.2984C15.991 10.4449 16 10.1728 16 8C16 5.82721 15.991 5.55491 15.952 4.7016C15.9133 3.85014 15.7778 3.26869 15.5801 2.75967C15.3755 2.23351 15.1022 1.78749 14.6575 1.34276C14.2127 0.898032 13.7664 0.624308 13.2407 0.420015C12.7315 0.222151 12.15 0.0870031 11.2986 0.0482874C10.4452 0.00942891 10.1729 0 8.00007 0C5.82736 0 5.55506 0.00942891 4.70172 0.0482874ZM4.76747 14.5116C3.98742 14.4761 3.56382 14.3461 3.28209 14.2364C2.9085 14.091 2.6422 13.9177 2.36218 13.6378C2.08216 13.358 1.90886 13.0915 1.76357 12.7181C1.65399 12.4362 1.52384 12.0126 1.48812 11.2326C1.44969 10.389 1.44141 10.1359 1.44141 7.99992C1.44141 5.8637 1.44969 5.61083 1.48812 4.76709C1.52384 3.9872 1.65399 3.56362 1.76357 3.28175C1.90886 2.90831 2.08216 2.64173 2.36218 2.36186C2.6422 2.08199 2.9085 1.90841 3.28209 1.76355C3.56382 1.65398 3.98742 1.52369 4.76747 1.48797C5.61095 1.44954 5.86411 1.4414 8.0001 1.4414C10.1361 1.4414 10.3891 1.44954 11.233 1.48797C12.0128 1.52369 12.4364 1.65398 12.7184 1.76355C13.0918 1.90841 13.3583 2.08199 13.6382 2.36186C13.9182 2.64173 14.0913 2.90831 14.2366 3.28175C14.3462 3.56362 14.4765 3.9872 14.5122 4.76709C14.5507 5.61083 14.5585 5.8637 14.5585 7.99992C14.5585 10.1359 14.5507 10.389 14.5122 11.2326C14.4765 12.0126 14.3462 12.4362 14.2366 12.7181C14.0913 13.0915 13.9182 13.358 13.6382 13.6378C13.3583 13.9177 13.0918 14.091 12.7184 14.2364C12.4364 14.3461 12.0128 14.4761 11.233 14.5116C10.3894 14.5503 10.1364 14.5583 8.0001 14.5583C5.86411 14.5583 5.61095 14.5503 4.76747 14.5116ZM11.3105 3.72943C11.3105 4.25945 11.7403 4.68947 12.2706 4.68947C12.8008 4.68947 13.2305 4.25945 13.2305 3.72943C13.2305 3.19913 12.8008 2.76954 12.2706 2.76954C11.7403 2.76954 11.3105 3.19913 11.3105 3.72943ZM3.8916 8.00017C3.8916 10.2691 5.731 12.1082 7.99986 12.1082C10.2689 12.1082 12.108 10.2691 12.108 8.00017C12.108 5.73124 10.2689 3.89203 7.99986 3.89203C5.731 3.89203 3.8916 5.73124 3.8916 8.00017ZM5.33398 8.00009C5.33398 6.52732 6.52777 5.33343 8.00058 5.33343C9.47339 5.33343 10.6673 6.52732 10.6673 8.00009C10.6673 9.473 9.47339 10.6668 8.00058 10.6668C6.52777 10.6668 5.33398 9.473 5.33398 8.00009Z" fill="white"></path>
  </symbol>
  <symbol fill="none" xmlns="http://www.w3.org/2000/svg" viewBox="0 0 48 38" id="meet-fish_icon">
    <path fill-rule="evenodd" clip-rule="evenodd" d="M12.1024 8.98763C12.007 9.07187 11.9117 9.15603 11.8185 9.24233C11.6029 9.43749 11.3909 9.63575 11.1825 9.83643C9.38673 11.5657 7.78774 13.5437 6.6388 15.7566C5.48834 17.9723 4.80473 20.4212 4.86857 22.8281C4.89742 23.9138 5.08235 25.0666 5.71905 26.0344C5.82872 26.2012 5.95174 26.3607 6.08746 26.5105L8.36463 29.0667L8.38678 29.0916C8.64858 29.3854 8.96124 29.6409 9.32367 29.8383C9.86832 30.1349 10.5143 30.2899 11.1989 30.2324C11.7923 30.1825 12.3503 29.9796 12.8455 29.7117C13.3384 29.4451 13.7667 29.1174 14.153 28.787C14.9248 28.127 15.5508 27.46 16.2157 27.028C17.4032 26.2563 18.9418 26.0344 20.4924 25.9976C22.0522 25.9606 23.7258 26.0837 25.4829 25.6704C27.621 25.1675 29.6032 23.8826 31.0106 22.1526C32.4163 20.4246 33.2195 18.3012 33.3175 16.2136C33.4205 14.02 32.7454 11.8979 31.4229 10.2758C31.347 10.1826 31.2683 10.0918 31.1881 10.0023L28.8889 7.42128C27.5758 5.94226 25.7291 4.95535 23.68 4.65156C21.419 4.31637 19.0301 4.81379 16.8853 5.80006C15.1302 6.60705 13.5391 7.72571 12.1036 8.98791L12.1024 8.98763ZM13.1015 10.039C13.2029 9.9494 13.3064 9.86201 13.4094 9.77453C14.6485 8.72736 15.9849 7.8224 17.4115 7.16641C19.3084 6.29421 21.3912 5.87562 23.2886 6.1569C25.0997 6.4254 26.7522 7.34853 27.8593 8.70642C28.9665 10.0644 29.5422 11.8732 29.4559 13.7117C29.3738 15.4604 28.6898 17.2579 27.5278 18.6862C26.3675 20.1125 24.7063 21.1847 22.9668 21.5939C21.5246 21.9331 19.9648 21.8388 18.3093 21.878C16.6447 21.9175 14.7816 22.1269 13.1489 23.1879C12.2335 23.7828 11.5602 24.5212 10.8968 25.0886C10.5655 25.3718 10.2353 25.6182 9.90217 25.7984C9.57129 25.9774 9.23105 26.092 8.92065 26.1181C8.56527 26.1479 8.18973 26.0647 7.86883 25.8899C7.54531 25.7137 7.26245 25.4412 7.04641 25.1128C6.61192 24.4524 6.44163 23.5637 6.41667 22.6231C6.36088 20.5213 6.96316 18.329 8.003 16.3263C9.04427 14.3208 10.5172 12.4884 12.203 10.8651C12.4964 10.5826 12.7958 10.3067 13.1015 10.0391L13.1015 10.039ZM14.015 11.0754C13.7303 11.3229 13.4515 11.5814 13.1765 11.8464C11.5957 13.3687 10.2429 15.0624 9.30423 16.8702C8.36992 18.6697 7.84517 20.6174 7.89322 22.4282C7.9145 23.2306 8.07096 23.8673 8.3126 24.2345C8.42989 24.4129 8.57284 24.5386 8.68817 24.6014C8.7958 24.66 8.91341 24.675 8.95477 24.6715C8.99586 24.668 9.12851 24.6375 9.30237 24.5435C9.48293 24.4458 9.71956 24.2773 9.99852 24.0387C10.5587 23.5597 11.2768 22.7532 12.4311 22.0031C14.4883 20.6662 16.6608 20.4686 18.4343 20.4266C20.181 20.3852 21.6323 20.4522 22.7742 20.1836C24.1336 19.8638 25.489 18.9942 26.4137 17.8576C27.3432 16.7149 27.9135 15.2281 27.9805 13.8025C28.0509 12.3028 27.5697 10.7926 26.6678 9.6864C25.7663 8.58064 24.3881 7.81122 22.9156 7.59289C21.3648 7.36301 19.5739 7.70641 17.9135 8.46987C16.6568 9.04773 15.447 9.86075 14.3003 10.8301C14.2046 10.9107 14.1096 10.9926 14.015 11.0754L14.015 11.0754ZM20.7828 13.0188C21.3287 12.5367 21.9803 12.2182 22.5945 12.1335C23.2086 12.0487 23.7349 12.2046 24.0576 12.5668C24.3803 12.929 24.4729 13.4679 24.3152 14.065C24.1574 14.662 23.7621 15.2683 23.2163 15.7504C22.946 15.9891 22.6469 16.1902 22.3361 16.3421C22.0252 16.494 21.7087 16.5938 21.4046 16.6358C21.1005 16.6778 20.8148 16.6611 20.5637 16.5868C20.3127 16.5124 20.1012 16.3818 19.9414 16.2025C19.7816 16.0231 19.6767 15.7985 19.6325 15.5414C19.5883 15.2843 19.6057 14.9999 19.6839 14.7042C19.762 14.4086 19.8993 14.1076 20.0878 13.8184C20.2764 13.5292 20.5126 13.2575 20.7828 13.0188Z" fill="#D64F4D"></path>
    <path d="M43.0601 12.6642C40.6262 14.7945 40.3334 18.9016 40.3334 18.9016C17.3126 14.1777 12.6894 31.5069 12.6894 31.5069C12.6894 31.5069 27.8866 41.1243 41.5923 22.1096C41.5923 22.1096 44.6038 24.9315 47.8435 24.8538C47.8435 24.8538 45.0253 22.6968 43.7412 19.4246C42.4577 16.1527 43.0601 12.6642 43.0601 12.6642ZM18.4785 29.047C17.9389 29.257 17.3126 28.9455 17.0796 28.3516C16.8466 27.7578 17.095 27.1064 17.6346 26.8965C18.1742 26.6865 18.8003 26.9976 19.0333 27.5915C19.2663 28.1853 19.0181 28.8371 18.4785 29.047ZM23.6784 31.7047C23.6519 31.8368 23.5659 31.9338 23.4567 31.9763C23.3867 32.0035 23.306 32.0079 23.2248 31.9826C23.0197 31.9204 22.889 31.6939 22.9337 31.4777C23.7377 27.5874 20.8214 25.7963 20.6975 25.7219C20.5083 25.6093 20.4296 25.3598 20.5219 25.1647C20.6133 24.9695 20.8402 24.9015 21.0299 25.0131C21.0658 25.0347 24.6124 27.1862 23.6784 31.7047Z" fill="#7A7871"></path>
  </symbol>
  <symbol fill="none" xmlns="http://www.w3.org/2000/svg" viewBox="0 0 126 73" id="monkey">
    <path d="M45.1731 50.0545C44.9929 49.7136 44.8127 49.4296 44.6926 49.0887C43.8517 47.1572 43.8517 45.6802 44.152 43.8055C44.3923 42.4421 44.3322 41.7604 43.9117 41.2491C43.4312 40.6811 42.7104 40.6242 41.6893 40.5106H41.5091C41.2087 40.4538 40.9084 40.4538 40.6681 40.4538C38.3255 40.3402 37.0041 40.397 36.4034 41.2491C35.8027 42.0445 36.2232 43.2374 37.0641 44.9417C37.4846 45.7938 37.6648 46.646 37.7849 47.2709C36.7638 47.3277 35.5625 47.7821 34.1209 48.3502C31.1776 49.4864 27.1531 51.077 22.2277 49.6568C16.4012 48.0094 11.5358 43.6351 8.89287 41.2491C7.63147 40.113 7.09087 39.6017 6.67041 39.4881C6.06974 39.3176 5.28887 39.7153 4.86841 39.9425L4.62814 40.0562C4.32781 40.2834 3.90734 40.6242 3.72714 41.0219C3.30667 42.3285 3.24661 44.7713 4.26774 47.4981C3.90734 47.3277 3.66707 47.2709 3.42681 47.214C2.82614 47.1572 2.16541 47.6117 1.62481 48.123L1.44461 48.2934C1.14427 48.5775 0.783875 49.0319 0.783875 49.4864C0.663742 51.5883 1.74494 54.8832 4.32781 57.9509H4.26774C3.66707 58.0645 3.12647 58.7462 2.76607 59.3711V59.5983C2.58587 59.996 2.40567 60.5073 2.46574 60.9617C3.06641 63.2909 5.52914 66.6426 9.67374 68.9718C12.1965 70.392 16.0408 71.7554 21.3267 71.7554C23.6693 71.7554 26.3122 71.4713 29.1954 70.7896C36.043 69.199 42.4101 64.5975 44.9929 59.2007C46.6147 56.0194 46.6748 52.8381 45.1731 50.0545ZM4.80834 41.3059C4.80834 41.3059 4.86841 41.2491 4.86841 41.1923C4.98854 41.4196 5.16874 41.7036 5.34894 41.9877C6.91067 44.6577 10.3345 50.6794 18.3834 53.6902C13.3979 52.4972 8.95294 50.0545 6.31001 48.5775C6.12981 48.4638 5.94961 48.3502 5.76941 48.2934C4.50801 45.5098 4.32781 42.783 4.80834 41.3059ZM1.92514 49.6C1.92514 49.6 1.92514 49.4864 2.04527 49.3728C2.22547 49.5432 2.52581 49.8841 2.82614 50.1681C5.34894 52.8381 11.2955 59.1439 22.1676 59.7688C22.528 59.7688 22.8283 59.7688 23.1887 59.7688C24.2699 59.7688 25.4112 59.6551 26.4323 59.4279C26.3122 59.4847 26.132 59.4847 26.0119 59.5415C19.2243 61.0754 11.716 59.3711 7.69154 58.4622C7.03081 58.2917 6.49021 58.1781 6.06974 58.1213C3.00634 55.1104 1.80501 51.5883 1.92514 49.6ZM44.0319 58.8598C41.5691 63.9158 35.5625 68.3469 29.0152 69.8239C12.3167 73.6301 4.50801 64.4839 3.54694 60.7345C3.54694 60.6777 3.54694 60.6209 3.60701 60.4505C3.90734 60.5641 4.26774 60.7913 4.62814 61.0185C8.05194 63.0068 16.0408 67.6083 27.1531 65.052C34.4813 63.4045 38.2054 58.0645 40.3678 54.1447C40.4879 53.9175 40.4279 53.5766 40.1275 53.463C39.8873 53.3494 39.5269 53.4062 39.4067 53.6902C37.3645 57.3828 33.7605 62.4956 26.8528 64.0862C16.1609 66.529 8.47241 62.0411 5.16874 60.1664C4.68821 59.8824 4.32781 59.6551 4.02747 59.5415C4.26774 59.2007 4.50801 58.9734 4.62814 58.9734C4.92847 58.9166 6.18987 59.2007 7.39121 59.4847C10.2744 60.1664 14.9596 61.189 19.9451 61.189C21.9874 61.189 24.1498 61.0185 26.1921 60.5073C31.4779 59.3143 34.6014 56.3034 37.1242 53.2358C37.3044 53.0085 37.2443 52.6677 37.0041 52.4972C36.7638 52.3268 36.4034 52.3836 36.2232 52.6109C35.9829 52.8949 35.6826 53.2358 35.4423 53.5198C31.1776 57.2692 26.7927 58.9734 22.1075 58.6894C11.716 58.1213 5.94961 52.0428 3.48687 49.4296C3.12647 49.0319 2.88621 48.8047 2.64594 48.5775C2.94627 48.3502 3.18654 48.2366 3.30667 48.2366C3.60701 48.2934 4.62814 48.8615 5.64927 49.4296C9.13314 51.3611 15.6203 54.94 22.4679 55.3377C22.8283 55.3377 23.1287 55.3377 23.4891 55.3377C25.8917 55.3377 27.934 54.8832 29.736 54.1447H29.7961C29.8561 54.1447 29.8561 54.0879 29.9162 54.0879C32.1987 53.179 34.0007 51.9292 35.5625 50.9066C36.1031 50.5658 36.5836 50.2249 37.0041 49.9409C37.2443 49.7704 37.3044 49.4864 37.1843 49.2592C37.0041 49.0319 36.7037 48.9751 36.4635 49.0887C35.9829 49.3728 35.5024 49.7136 34.9618 50.0545C33.4001 51.077 31.5981 52.3268 29.3155 53.179C26.3723 54.0311 23.4891 54.0879 20.726 53.2926C11.5959 50.7362 7.87174 44.2032 6.24994 41.4196C6.00968 41.0219 5.88954 40.7379 5.70934 40.5106C6.00967 40.397 6.18987 40.3402 6.31001 40.3402C6.55027 40.4538 7.33114 41.1355 8.11201 41.874C10.7549 44.26 15.7405 48.7479 21.8072 50.4521C23.3089 50.8498 24.7505 51.0202 26.0719 51.0202C29.4357 51.0202 32.1987 49.9409 34.4212 49.0887C35.9829 48.4638 37.3044 47.9526 38.2054 48.123H38.2655H38.3255C38.3255 48.123 38.3255 48.123 38.3856 48.123C38.4457 48.123 38.4457 48.123 38.5057 48.0662C38.5057 48.0662 38.5658 48.0662 38.5658 48.0094C38.6259 48.0094 38.6259 47.9526 38.6859 47.9526L38.746 47.8958C38.746 47.8958 38.8061 47.8389 38.8061 47.7821C38.8061 47.7253 38.8061 47.7253 38.8661 47.6685C38.8661 47.6685 38.8661 47.6685 38.8661 47.6117V47.5549V47.4981C38.8061 46.8164 38.6259 45.453 38.0252 44.2032C37.7249 43.5783 36.944 41.9877 37.3044 41.5332C37.6047 41.0787 39.2265 41.1355 40.6681 41.1923C40.9084 41.1923 41.1487 41.1923 41.3889 41.2491H41.5691C42.35 41.3059 42.8906 41.4196 43.0708 41.59C43.251 41.8172 43.251 42.3853 43.1309 43.3511C42.7705 45.3394 42.7705 47.0436 43.7315 49.2023C43.8517 49.5432 44.0319 49.8841 44.2121 50.2249C45.5335 53.0085 45.4735 55.849 44.0319 58.8598Z" fill="#333B41" stroke="#333B41" stroke-width="0.7"></path>
    <path d="M42.4714 57.8937C42.2312 57.7801 41.8708 57.8937 41.7506 58.1209C39.4681 62.7792 33.8819 66.8695 27.8152 68.2329C27.5148 68.2897 27.3346 68.5737 27.3947 68.8578C27.4548 69.085 27.695 69.2554 27.9353 69.2554C27.9954 69.2554 27.9954 69.2554 28.0554 69.2554C34.4826 67.8352 40.3691 63.5177 42.7718 58.5754C42.8919 58.3482 42.7718 58.0641 42.4714 57.8937Z" fill="#333B41" stroke="#333B41" stroke-width="0.7"></path>
    <path d="M68.4004 1.00768C65.2033 0.905391 62.0568 1.8276 59.4168 3.64074C56.7768 5.45388 54.7804 8.06379 53.7167 11.0923C53.6668 11.2345 53.5798 11.3607 53.4647 11.4576C53.3497 11.5545 53.2108 11.6186 53.0626 11.6433C51.4417 11.9186 49.972 12.7659 48.918 14.0324C47.864 15.299 47.295 16.9018 47.3134 18.552C47.3318 20.2023 47.9365 21.7917 49.0185 23.0342C50.1005 24.2767 51.5888 25.0909 53.2154 25.3297C53.3775 25.3535 53.5292 25.4244 53.6516 25.5337C53.774 25.643 53.8619 25.7858 53.9043 25.9447C54.7001 28.9208 56.4152 31.5671 58.8031 33.5033C61.1909 35.4395 64.1287 36.5659 67.1942 36.7209C66.5251 39.1745 66.1195 41.693 65.9845 44.2333L60.924 43.4302C59.8571 43.2608 58.767 43.5238 57.8932 44.1613C57.0195 44.7988 56.4338 45.7585 56.265 46.8296C56.0962 47.9006 56.3581 48.995 56.993 49.8722C57.628 50.7494 58.584 51.3373 59.6508 51.5068L66.5244 52.5969C66.7194 53.6657 66.9631 54.7249 67.2545 55.7714C65.6904 57.4792 64.8224 59.7146 64.8226 62.0346V63.4815C64.8224 63.7046 64.7341 63.9186 64.5769 64.0763C64.4198 64.2341 64.2067 64.3227 63.9845 64.3229H63.4828C62.8881 64.3225 62.299 64.44 61.7494 64.6682C61.1998 64.8965 60.7004 65.2312 60.2796 65.6533C59.8589 66.0754 59.5252 66.5766 59.2974 67.1282C59.0697 67.6798 58.9524 68.2711 58.9524 68.8682V70.0537C58.9524 70.3888 59.0183 70.7206 59.1461 71.0302C59.274 71.3397 59.4613 71.6208 59.6975 71.8576C59.9337 72.0944 60.214 72.2822 60.5225 72.4102C60.831 72.5382 61.1615 72.6038 61.4953 72.6035H93.6979C98.0269 72.604 102.307 71.6861 106.258 69.9097C110.209 68.1333 113.741 65.5386 116.623 62.2957C121.185 57.704 124.233 51.8179 125.357 45.4318C126.047 39.885 124.548 34.2873 121.179 29.8364C118.549 26.4476 114.975 23.9195 110.912 22.5725C108.105 21.7241 105.102 21.7963 102.339 22.7788C99.5763 23.7613 97.1976 25.6028 95.5487 28.0356C95.2353 28.4967 95.0156 29.0152 94.902 29.5616C94.7884 30.108 94.7832 30.6713 94.8867 31.2197C94.9902 31.7681 95.2004 32.2906 95.5052 32.7574C95.81 33.2241 96.2035 33.6261 96.6632 33.94C97.1228 34.254 97.6396 34.4738 98.184 34.5871C98.7283 34.7004 99.2896 34.7049 99.8357 34.6003C100.382 34.4957 100.902 34.2839 101.367 33.9773C101.831 33.6707 102.231 33.2752 102.543 32.8134C103.17 31.8884 104.071 31.1847 105.118 30.8015C106.165 30.4183 107.305 30.3751 108.378 30.678C110.785 31.5014 112.903 33.0083 114.474 35.0159C116.442 37.637 117.342 40.9127 116.988 44.1761C116.118 48.8459 113.841 53.1347 110.464 56.463C107.233 60.1776 102.868 62.715 98.0505 63.6793C98.0109 63.687 97.9699 63.6847 97.9314 63.6725C97.8929 63.6603 97.858 63.6386 97.83 63.6095C97.8019 63.5803 97.7815 63.5446 97.7707 63.5056C97.7599 63.4665 97.759 63.4253 97.768 63.3858C99.2535 57.132 98.8309 50.5742 96.5552 44.5647C95.3896 40.7952 93.4443 37.3154 90.8466 34.3527C88.249 31.39 85.0575 29.0115 81.4809 27.3725C81.6587 26.9048 81.8124 26.4281 81.9413 25.9445C81.9837 25.7856 82.0716 25.6428 82.1941 25.5335C82.3165 25.4242 82.4682 25.3533 82.6303 25.3295C84.2569 25.0903 85.745 24.276 86.8266 23.0332C87.9083 21.7904 88.5126 20.2007 88.5306 18.5504C88.5486 16.9001 87.9793 15.2977 86.925 14.0314C85.8707 12.7651 84.4008 11.9181 82.7799 11.6431C82.6317 11.6184 82.4928 11.5543 82.3778 11.4574C82.2627 11.3605 82.1757 11.2343 82.1258 11.0921C81.1166 8.21857 79.2662 5.71834 76.8171 3.9188C74.368 2.11927 71.4338 1.10461 68.4004 1.00768ZM67.4574 2.11355C70.421 2.01807 73.338 2.87269 75.7852 4.55356C78.2324 6.23443 80.0827 8.65423 81.0679 11.4619C81.1835 11.7905 81.3846 12.082 81.6503 12.3062C81.9161 12.5304 82.2368 12.6791 82.5791 12.7368C83.9399 12.9681 85.1737 13.6794 86.0587 14.7425C86.9437 15.8057 87.4217 17.151 87.4068 18.5364C87.3919 19.9218 86.8851 21.2565 85.9775 22.3002C85.0698 23.344 83.821 24.0284 82.4556 24.2302C82.0799 24.2852 81.7285 24.4494 81.4447 24.7026C81.1609 24.9558 80.9572 25.2868 80.8587 25.6549C80.4389 27.2271 79.7386 28.7098 78.7918 30.0311C78.92 27.4422 78.0269 24.9069 76.3059 22.9745C76.2864 22.948 76.2724 22.9177 76.2648 22.8856C76.2572 22.8535 76.2562 22.8203 76.2618 22.7878C76.2674 22.7554 76.2796 22.7243 76.2975 22.6967C76.3154 22.669 76.3387 22.6454 76.3661 22.6271C77.7327 21.4524 78.6095 19.8048 78.8225 18.0114C79.0356 16.2179 78.5693 14.4095 77.5162 12.9451C76.4632 11.4806 74.9002 10.4673 73.1375 10.1058C71.3748 9.74425 69.5411 10.0611 68.0003 10.9935C67.777 11.1284 67.5212 11.1997 67.2605 11.1997C66.9999 11.1997 66.7441 11.1284 66.5208 10.9935H66.5045C64.9637 10.0648 63.1318 9.75074 61.3713 10.1136C59.6109 10.4765 58.0504 11.4899 56.9987 12.9529C55.9471 14.4159 55.481 16.222 55.6927 18.0136C55.9044 19.8052 56.7786 21.4517 58.142 22.6271C58.165 22.6497 58.1833 22.6767 58.1957 22.7065C58.2082 22.7364 58.2146 22.7685 58.2146 22.8008C58.2146 22.8331 58.2082 22.865 58.1957 22.8949C58.1833 22.9247 58.165 22.9519 58.142 22.9745C56.9052 24.3661 56.0872 26.0814 55.7831 27.9212C55.4387 27.1923 55.1604 26.4338 54.9513 25.6549C54.853 25.2873 54.6498 24.9566 54.3666 24.7034C54.0834 24.4503 53.7327 24.2858 53.3576 24.2302C51.9922 24.0284 50.7434 23.344 49.8358 22.3002C48.9281 21.2565 48.4213 19.9218 48.4064 18.5364C48.3915 17.151 48.8695 15.8057 49.7545 14.7425C50.6395 13.6794 51.8734 12.9681 53.2341 12.7368C53.5758 12.6785 53.8959 12.5298 54.161 12.3056C54.4262 12.0814 54.6268 11.7901 54.7421 11.4619C55.6765 8.79894 57.3905 6.48146 59.6594 4.8133C61.9284 3.14515 64.6465 2.2041 67.4574 2.11355ZM62.5903 11.0698C62.7458 11.0638 62.9015 11.0638 63.057 11.0698C64.0722 11.1137 65.0602 11.413 65.9302 11.9401C66.3256 12.1789 66.7784 12.305 67.2398 12.305C67.7013 12.305 68.154 12.1789 68.5494 11.9401C69.8529 11.1551 71.4025 10.89 72.8914 11.1975C74.3803 11.5049 75.6999 12.3623 76.589 13.6C77.4782 14.8377 77.872 16.3655 77.6925 17.8809C77.513 19.3962 76.7733 20.7887 75.6198 21.7826C75.4843 21.9003 75.3735 22.0438 75.2939 22.205C75.2143 22.3661 75.1676 22.5418 75.1564 22.7214C75.1452 22.9009 75.1698 23.0808 75.2287 23.2507C75.2876 23.4206 75.3797 23.577 75.4995 23.7107C76.4431 24.7702 77.1152 26.0445 77.4576 27.4235C77.8001 28.8025 77.8025 30.2446 77.4648 31.6247C76.0663 33.0463 74.3701 34.1377 72.4994 34.8195C70.6287 35.5013 68.6302 35.7566 66.649 35.5668C64.6678 35.377 62.7535 34.7468 61.045 33.7221C59.3365 32.6974 57.8765 31.3037 56.7711 29.6423C56.7452 27.4565 57.5359 25.3403 58.9871 23.7107C59.1064 23.5764 59.1978 23.4195 59.2559 23.2493C59.314 23.079 59.3377 22.8987 59.3256 22.7191C59.3135 22.5395 59.2658 22.3643 59.1854 22.2035C59.1049 22.0427 58.9933 21.8996 58.8571 21.7826C57.9276 20.9856 57.2597 19.9251 56.941 18.7404C56.6222 17.5557 56.6674 16.3019 57.0707 15.1434C57.474 13.985 58.2165 12.9758 59.201 12.2484C60.1854 11.5209 61.3659 11.109 62.5875 11.0668L62.5903 11.0698ZM106.835 23.0955C108.104 23.0845 109.368 23.265 110.584 23.6311C114.43 24.9112 117.812 27.3068 120.303 30.5156C123.489 34.7258 124.912 40.0187 124.268 45.2665C123.177 51.4294 120.228 57.1077 115.82 61.5344C113.041 64.6672 109.634 67.1742 105.822 68.8909C102.01 70.6075 97.8788 71.4949 93.7006 71.4947H61.4983C61.3095 71.4951 61.1226 71.4582 60.9481 71.386C60.7736 71.3138 60.615 71.2076 60.4814 71.0738C60.3478 70.94 60.2418 70.7812 60.1695 70.6062C60.0972 70.4312 60.06 70.2434 60.06 70.054V68.8684C60.06 68.4169 60.1486 67.9699 60.3208 67.5528C60.493 67.1357 60.7454 66.757 61.0635 66.4379C61.3817 66.1188 61.7593 65.8657 62.1749 65.6932C62.5905 65.5207 63.0359 65.4321 63.4856 65.4325H63.9873C64.2426 65.4327 64.4956 65.3826 64.7316 65.2847C64.9677 65.1868 65.1822 65.0433 65.3629 64.8621C65.5437 64.681 65.6871 64.4658 65.785 64.229C65.8829 63.9922 65.9333 63.7383 65.9335 63.4819V62.035C65.9829 59.9089 66.8588 57.8866 68.3741 56.4004C69.8893 54.9143 71.9236 54.0823 74.042 54.0823C76.1603 54.0823 78.1946 54.9143 79.7099 56.4004C81.2252 57.8866 82.1011 59.9089 82.1505 62.035V64.5114C82.1548 64.6556 82.2148 64.7925 82.318 64.893C82.4211 64.9935 82.5592 65.0496 82.7029 65.0496C82.8467 65.0496 82.9847 64.9935 83.0879 64.893C83.191 64.7925 83.2511 64.6556 83.2554 64.5114V62.035C83.2558 60.4145 82.8323 58.8221 82.0272 57.4176C81.2221 56.013 80.0637 54.8455 78.6678 54.0316C79.5179 53.8303 80.319 53.4595 81.0234 52.9412C81.7279 52.4229 82.3214 51.7677 82.7686 51.0145C83.2158 50.2614 83.5077 49.4256 83.6267 48.557C83.7458 47.6884 83.6897 46.8046 83.4618 45.9581C82.8714 43.7654 82.0542 41.6405 81.0235 39.6184C80.9565 39.4874 80.8404 39.3885 80.7008 39.3434C80.5611 39.2984 80.4093 39.3108 80.2788 39.378C80.1483 39.4453 80.0498 39.5618 80.0048 39.702C79.9599 39.8422 79.9723 39.9947 80.0393 40.1258C81.0339 42.0788 81.8224 44.1307 82.3919 46.2483C82.6273 47.1227 82.6411 48.0424 82.4322 48.9236C82.2232 49.8047 81.798 50.6195 81.1953 51.2936C80.5927 51.9677 79.8316 52.4797 78.9815 52.7831C78.1314 53.0866 77.2192 53.1718 76.3279 53.0309L59.8282 50.411C59.0533 50.2851 58.3598 49.8558 57.8994 49.2175C57.4391 48.5792 57.2495 47.7839 57.3721 47.0055C57.4947 46.2272 57.9196 45.5293 58.5537 45.0648C59.1878 44.6003 59.9795 44.407 60.7552 44.5272L73.4579 46.5449C73.602 46.5663 73.7488 46.5297 73.8662 46.443C73.9837 46.3563 74.0622 46.2266 74.0848 46.082C74.1075 45.9375 74.0723 45.7898 73.987 45.6712C73.9017 45.5525 73.7731 45.4725 73.6293 45.4485L67.086 44.4095C67.2147 41.8119 67.6354 39.2371 68.3401 36.7343C71.0189 36.6572 73.6242 35.8371 75.8674 34.3648C78.1105 32.8926 79.9039 30.8257 81.0489 28.3932C84.4835 29.971 87.5475 32.2594 90.0401 35.1085C92.5328 37.9575 94.3979 41.3029 95.5134 44.9257C97.7206 50.7362 98.1321 57.0795 96.6945 63.1283C96.6419 63.3491 96.6455 63.5797 96.705 63.7986C96.7644 64.0176 96.8778 64.2181 97.0346 64.3815C97.1915 64.545 97.3868 64.6663 97.6025 64.7341C97.8183 64.8019 98.0476 64.8142 98.2693 64.7697C103.313 63.7603 107.884 61.1086 111.273 57.2256C114.804 53.7315 117.181 49.2332 118.083 44.3391C118.48 40.7784 117.503 37.2006 115.353 34.3408C113.643 32.1508 111.334 30.5091 108.708 29.617C107.409 29.2446 106.027 29.2929 104.757 29.7547C103.487 30.2164 102.395 31.0684 101.635 32.1893C101.404 32.5301 101.108 32.8217 100.765 33.0478C100.422 33.2739 100.037 33.43 99.6339 33.507C99.2306 33.584 98.8161 33.5803 98.4142 33.4965C98.0122 33.4126 97.6306 33.2501 97.2912 33.0182C96.9518 32.7863 96.6612 32.4895 96.4361 32.1449C96.2109 31.8002 96.0556 31.4145 95.979 31.0096C95.9023 30.6046 95.9059 30.1885 95.9895 29.7849C96.073 29.3814 96.2349 28.9983 96.466 28.6576C97.6182 26.9586 99.1633 25.5652 100.969 24.5966C102.775 23.628 104.788 23.1127 106.835 23.0955ZM67.6892 52.7819L70.9879 53.3047C69.9625 53.6671 69.0091 54.2088 68.1717 54.9047C67.9897 54.2024 67.8298 53.4944 67.6923 52.7819H67.6892Z" fill="#333B41" stroke="#333B41" stroke-width="0.7"></path>
    <path d="M71.8428 14.6308C71.2242 14.6419 70.635 14.8981 70.2038 15.3435C69.7726 15.789 69.5343 16.3875 69.5409 17.0086C69.5409 17.6329 69.7879 18.2315 70.2276 18.6729C70.6673 19.1143 71.2637 19.3624 71.8856 19.3624C72.5074 19.3624 73.1038 19.1143 73.5435 18.6729C73.9832 18.2315 74.2302 17.6329 74.2302 17.0086C74.2336 16.6938 74.1739 16.3815 74.0549 16.0903C73.9359 15.799 73.7598 15.5346 73.5372 15.3129C73.3146 15.0911 73.0499 14.9165 72.7589 14.7993C72.4678 14.6822 72.1563 14.6249 71.8428 14.6308ZM71.8623 15.7527C72.0281 15.7494 72.1928 15.7794 72.3468 15.8412C72.5008 15.903 72.6409 15.9951 72.7587 16.1123C72.8765 16.2294 72.9698 16.3691 73.0328 16.5231C73.0959 16.6771 73.1275 16.8422 73.1258 17.0086C73.1259 17.1721 73.0939 17.334 73.0316 17.4851C72.9693 17.6362 72.878 17.7735 72.7629 17.8891C72.6477 18.0048 72.5111 18.0964 72.3606 18.159C72.2101 18.2215 72.0489 18.2538 71.886 18.2538C71.7232 18.2538 71.5619 18.2215 71.4114 18.159C71.261 18.0964 71.1243 18.0048 71.0092 17.8891C70.894 17.7735 70.8027 17.6362 70.7404 17.4851C70.6782 17.334 70.6462 17.1721 70.6462 17.0086C70.6429 16.6806 70.7689 16.3644 70.9966 16.1292C71.2244 15.8939 71.5356 15.7587 71.8623 15.7527Z" fill="#333B41" stroke="#333B41" stroke-width="0.7"></path>
    <path d="M62.5598 14.6307C61.9412 14.6419 61.3521 14.898 60.9209 15.3435C60.4897 15.7889 60.2514 16.3875 60.258 17.0086C60.2491 17.3231 60.3032 17.636 60.4169 17.9292C60.5307 18.2224 60.7018 18.4898 60.9203 18.7154C61.1387 18.9411 61.4 19.1203 61.6887 19.2428C61.9774 19.3652 62.2876 19.4284 62.601 19.4284C62.9145 19.4284 63.2247 19.3652 63.5134 19.2428C63.8021 19.1203 64.0634 18.9411 64.2818 18.7154C64.5003 18.4898 64.6714 18.2224 64.7852 17.9292C64.8989 17.636 64.953 17.3231 64.9441 17.0086C64.9474 16.694 64.8879 16.3821 64.7691 16.091C64.6502 15.8 64.4745 15.5357 64.2522 15.314C64.0299 15.0924 63.7656 14.9177 63.4749 14.8003C63.1842 14.6829 62.873 14.6253 62.5598 14.6307ZM62.5792 15.7527C62.7448 15.7497 62.9092 15.78 63.0628 15.842C63.2165 15.9039 63.3562 15.9962 63.4737 16.1132C63.5912 16.2303 63.6841 16.3699 63.747 16.5237C63.8098 16.6774 63.8413 16.8424 63.8397 17.0086C63.8439 17.1745 63.815 17.3396 63.7547 17.4941C63.6944 17.6486 63.6038 17.7896 63.4884 17.9084C63.373 18.0273 63.2351 18.1216 63.0828 18.1861C62.9304 18.2506 62.7668 18.2838 62.6014 18.2838C62.4361 18.2838 62.2724 18.2506 62.1201 18.1861C61.9678 18.1216 61.8298 18.0273 61.7144 17.9084C61.599 17.7896 61.5085 17.6486 61.4482 17.4941C61.3878 17.3396 61.359 17.1745 61.3632 17.0086C61.3599 16.6805 61.4858 16.3643 61.7136 16.1291C61.9414 15.8939 62.2525 15.7586 62.5792 15.7527Z" fill="#333B41" stroke="#333B41" stroke-width="0.7"></path>
    <path d="M63.2729 28.8266C63.7217 29.4645 64.3165 29.9849 65.0073 30.3441C65.6981 30.7033 66.4647 30.891 67.2427 30.891C68.0206 30.891 68.7872 30.7033 69.478 30.3441C70.1688 29.9849 70.7636 29.4645 71.2124 28.8266C71.2945 28.7063 71.3262 28.5583 71.3005 28.4147C71.2748 28.2712 71.1939 28.1436 71.0752 28.0595C70.9565 27.9754 70.8096 27.9417 70.6663 27.9654C70.523 27.9892 70.3947 28.0685 70.3093 28.1865C69.9626 28.6792 69.5031 29.0814 68.9694 29.3588C68.4358 29.6363 67.8436 29.781 67.2427 29.781C66.6417 29.781 66.0496 29.6363 65.5159 29.3588C64.9823 29.0814 64.5228 28.6792 64.1761 28.1865C64.0906 28.0685 63.9624 27.9892 63.819 27.9654C63.6757 27.9417 63.5288 27.9754 63.4101 28.0595C63.2915 28.1436 63.2105 28.2712 63.1849 28.4147C63.1592 28.5583 63.1908 28.7063 63.2729 28.8266Z" fill="#333B41" stroke="#333B41" stroke-width="0.7"></path>
  </symbol>
  <symbol fill="none" xmlns="http://www.w3.org/2000/svg" viewBox="0 0 284 246" id="panda_widget">
    <path d="M248.818 196.012C259.667 175.031 268.492 149.302 268.492 121.882C268.492 108.109 264.189 92.4516 256.983 80.0005C250.681 69.113 238.996 55.0466 219.099 49.8605C193.918 43.298 168.405 49.4179 147.905 54.336C140.497 56.1132 133.499 57.7918 127.505 58.6219C114.063 60.4819 99.861 60.2094 87.6527 59.7377H87.6447C85.7346 59.6638 83.8685 59.5854 82.0672 59.5095C74.354 59.1839 56.5905 58.8716 56.5905 58.8716C55.6211 54.7508 53.4112 51.3747 50.6527 49.8162C49.484 49.167 48.2082 48.8379 46.9188 48.8531C45.6294 48.8683 44.3593 49.2274 43.2017 49.9041C39.4074 51.9519 37.588 56.502 38.4481 61.6388C32.3687 64.7595 26.4293 70.9711 22.8271 75.8557C19.7343 80.0492 17.1116 86.6705 14.5743 93.0737C11.9909 99.5951 9.31994 106.338 6.64684 109.061C5.9925 109.722 5.41381 110.483 4.92562 111.323C4.91713 111.323 4.90864 111.318 4.89962 111.316C4.34066 111.182 3.76434 111.188 3.20763 111.335C2.65092 111.482 2.12611 111.766 1.66685 112.168C1.20759 112.571 0.824019 113.084 0.540739 113.673C0.257459 114.263 0.0807214 114.917 0.0218613 115.592C-0.0369987 116.268 0.0233178 116.951 0.198943 117.597C0.374568 118.244 0.661624 118.839 1.0417 119.346C1.42178 119.852 1.88649 120.258 2.40603 120.538C2.92557 120.818 3.48848 120.966 4.05864 120.971C4.54128 122.763 5.19313 124.483 6.00165 126.1C11.3807 137.133 19.8898 143.992 27.3971 150.042C31.5356 153.378 35.4439 156.529 38.472 160.048C40.7437 162.78 42.7198 165.84 44.3541 169.157C44.3721 169.199 44.396 169.235 44.4156 169.276C47.4893 175.404 49.9274 182.881 50.3826 190.022C50.9583 199.044 52.3203 223.404 52.7485 231.098C51.2693 231.659 49.8817 232.518 48.646 233.637C47.7266 234.465 47.0521 235.62 46.7199 236.935C46.3877 238.251 46.4151 239.658 46.798 240.953C47.1615 242.275 47.8684 243.425 48.8166 244.237C49.7647 245.049 50.905 245.481 52.0725 245.469H77.215C78.025 245.471 78.8253 245.26 79.5597 244.853C80.2941 244.446 80.9446 243.852 81.4655 243.113C87.026 235.234 100.896 214.929 109.674 196.507C143.654 196.467 166.86 194.998 180.397 192.018C182.413 207.207 185.076 224.514 186.05 230.756C185.209 231.225 184.415 231.801 183.68 232.475C182.674 233.4 181.936 234.676 181.57 236.124C181.203 237.573 181.226 239.123 181.636 240.555C182.045 241.988 182.821 243.232 183.853 244.113C184.886 244.994 186.124 245.468 187.394 245.468H210.961C212.355 245.467 213.706 244.896 214.79 243.852C222.562 236.34 236.783 219.18 248.642 196.355C248.707 196.245 248.766 196.131 248.818 196.012ZM82.7384 123.819C75.1366 142.801 61.7558 158.156 47.5021 164.419C45.8655 161.368 43.9567 158.537 41.8089 155.976C38.4747 152.101 34.3944 148.812 30.0744 145.33C22.6462 139.342 14.9627 133.15 10.1323 123.242C7.19176 117.211 8.29007 114.875 9.75131 113.387C13.2033 109.871 15.9677 102.892 18.8949 95.5027C21.29 89.4555 23.7668 83.2028 26.416 79.6124C29.6218 75.2646 35.323 69.2521 40.84 66.6157C41.382 66.3558 41.8693 65.9569 42.2673 65.4474C45.2832 70.6999 52.4662 69.9254 54.2692 65.1426C54.3949 64.799 54.4882 64.4398 54.5472 64.0717C62.1394 65.2482 74.2368 64.8714 81.899 65.1964C83.1979 65.2514 84.5371 65.307 85.8932 65.3614C91.4809 84.0582 90.3788 104.741 82.7384 123.819ZM229.255 175.936C224.804 174.95 202.711 170.969 184.181 183.909C183.3 176.773 182.699 170.838 182.699 167.937C182.699 167.183 182.447 166.459 182 165.926C181.552 165.392 180.945 165.092 180.311 165.092C179.678 165.092 179.071 165.392 178.623 165.926C178.175 166.459 177.924 167.183 177.924 167.937C177.924 171.306 178.645 178.248 179.668 186.393C168.107 188.967 149.042 190.399 121.715 190.739C127.155 186.803 131.493 181.153 134.661 173.804C139.073 163.576 141.023 150.251 140.3 135.268C139.486 118.387 128.6 95.65 119.852 77.3825C117.826 73.1523 115.886 69.1004 114.27 65.5144C118.871 65.2899 123.497 64.9043 128.054 64.2733C134.245 63.4173 141.337 61.7153 148.845 59.911C168.907 55.0978 193.875 49.1075 218.076 55.4165C251.326 64.0856 263.716 100.786 263.716 121.882C263.716 146.163 256.475 169.109 247.132 188.388C244.389 183.5 238.673 178.023 229.255 175.936Z" fill="black"></path>
    <path d="M32.0017 89.2392C22.3919 84.8144 16.8025 97.2411 22.9183 104.539C26.2626 108.527 29.4418 117.769 36.7085 117.003C48.2537 115.788 47.1906 96.2253 32.0017 89.2392ZM27.6484 101.263C27.0785 101.263 26.5214 101.059 26.0475 100.676C25.5737 100.294 25.2044 99.7506 24.9863 99.1148C24.7682 98.479 24.7112 97.7794 24.8223 97.1045C24.9335 96.4296 25.2079 95.8096 25.6109 95.323C26.0139 94.8364 26.5273 94.505 27.0862 94.3708C27.6452 94.2365 28.2245 94.3055 28.751 94.5688C29.2775 94.8321 29.7275 95.2781 30.0442 95.8503C30.3608 96.4225 30.5298 97.0952 30.5298 97.7833C30.5296 98.706 30.226 99.5909 29.6857 100.243C29.1453 100.896 28.4125 101.262 27.6484 101.263Z" fill="black"></path>
    <path d="M135.331 201.951C135.301 201.811 135.233 201.687 135.136 201.599C135.04 201.511 134.921 201.464 134.799 201.465C132.193 201.498 118.399 201.668 112.55 201.696C112.46 201.695 112.372 201.722 112.293 201.774C112.214 201.825 112.148 201.9 112.101 201.99C108.342 209.044 101.747 220.019 97.3921 227.164C97.3204 227.282 97.285 227.425 97.2918 227.57C97.2986 227.715 97.3472 227.852 97.4295 227.96L103.515 236.012L103.45 236.127C103.429 236.172 103.402 236.216 103.38 236.261C102.905 237.179 102.646 238.23 102.63 239.306C102.613 240.382 102.84 241.443 103.286 242.381C103.732 243.319 104.382 244.099 105.169 244.642C105.955 245.185 106.85 245.471 107.762 245.47H133.641C134.325 245.469 135.003 245.307 135.633 244.993C136.264 244.679 136.835 244.219 137.313 243.641C137.791 243.062 138.166 242.376 138.416 241.624C138.666 240.872 138.787 240.068 138.77 239.26C138.683 235.097 138.456 228.562 137.892 221.47C137.426 214.901 136.57 208.379 135.331 201.951Z" fill="black"></path>
    <path d="M262.923 178.544C262.888 178.422 262.824 178.316 262.738 178.239C262.652 178.163 262.549 178.12 262.443 178.116C262.336 178.113 262.231 178.148 262.142 178.218C262.053 178.288 261.983 178.39 261.942 178.509C261.238 180.589 260.447 182.625 259.574 184.608C252.27 201.22 243.413 216.754 233.177 230.901C233.09 231.02 233.043 231.174 233.045 231.334C233.047 231.493 233.099 231.645 233.19 231.76L234.959 234.026C234.439 234.773 234.003 235.6 233.662 236.486C233.295 237.466 233.139 238.541 233.207 239.614C233.275 240.686 233.565 241.72 234.051 242.62C234.483 243.476 235.086 244.185 235.804 244.684C236.522 245.182 237.331 245.452 238.158 245.47H265.024C265.688 245.469 266.345 245.308 266.956 244.995C267.567 244.683 268.121 244.225 268.584 243.648C269.048 243.072 269.411 242.39 269.654 241.64C269.897 240.891 270.014 240.09 269.999 239.285C269.733 226.33 268.499 197.618 262.923 178.544Z" fill="black"></path>
  </symbol>
</svg>